#N canvas 595 582 545 200 12;
#X obj 31 120 outlet;
#X obj 31 11 inlet;
#X obj 75 92 + 1;
#X obj 246 11 loadbang;
#X obj 160 11 inlet reset;
#X obj 160 35 bng 19 250 50 0 empty empty empty 0 -10 0 12 #fcfcfc #000000 #000000;
#X obj 75 11 inlet value;
#X obj 246 73 expr if ($f1 > 0 \, $f1 \, 1);
#X obj 246 36 f \$1;
#X obj 31 92 i 0;
#X obj 160 59 i 0;
#X obj 31 36 bang;
#X connect 1 0 11 0;
#X connect 2 0 9 1;
#X connect 3 0 8 0;
#X connect 3 0 10 0;
#X connect 4 0 5 0;
#X connect 5 0 10 0;
#X connect 6 0 10 0;
#X connect 7 0 2 1;
#X connect 8 0 7 0;
#X connect 9 0 0 0;
#X connect 9 0 2 0;
#X connect 10 0 9 1;
#X connect 11 0 9 0;
