#N canvas 264 157 873 437 12;
#X obj 101 116 cnv 19 648 237 empty empty empty 20 12 0 12 #e0e0e0 #404040 0;
#X obj 312 146 display;
#N canvas 591 705 1080 508 led-status 0;
#X obj 15 28 r led;
#X obj 500 341 color, f 21;
#X obj 15 54 t b f, f 21;
#X obj 159 81 sel 0 1 2 3 4 5 6 7, f 115;
#X msg 159 121 223;
#X msg 189 121 223;
#X msg 219 121 223;
#X msg 259 121 255;
#X msg 289 121 0;
#X msg 319 121 0;
#X msg 389 121 255;
#X msg 359 121 255;
#X msg 419 121 0;
#X msg 489 121 255;
#X msg 519 121 0;
#X msg 459 121 0;
#X msg 560 121 0;
#X msg 590 121 255;
#X msg 620 121 255;
#X msg 660 121 65;
#X msg 690 121 105;
#X msg 720 121 225;
#X msg 760 121 255;
#X msg 790 121 0;
#X msg 820 121 255;
#X msg 860 121 255;
#X msg 920 121 255;
#X msg 890 121 255;
#X obj 72 4 loadbang;
#X msg 72 28 0;
#X obj 500 370 tgl 20 0 empty empty empty 17 7 0 10 #dfdfdf #dfdfdf #000000 0 1;
#X connect 0 0 2 0;
#X connect 1 0 30 0;
#X connect 2 0 1 0;
#X connect 2 1 3 0;
#X connect 3 0 4 0;
#X connect 3 0 5 0;
#X connect 3 0 6 0;
#X connect 3 1 7 0;
#X connect 3 1 8 0;
#X connect 3 1 9 0;
#X connect 3 2 11 0;
#X connect 3 2 10 0;
#X connect 3 2 12 0;
#X connect 3 3 15 0;
#X connect 3 3 13 0;
#X connect 3 3 14 0;
#X connect 3 4 16 0;
#X connect 3 4 17 0;
#X connect 3 4 18 0;
#X connect 3 5 19 0;
#X connect 3 5 20 0;
#X connect 3 5 21 0;
#X connect 3 6 22 0;
#X connect 3 6 23 0;
#X connect 3 6 24 0;
#X connect 3 7 25 0;
#X connect 3 7 27 0;
#X connect 3 7 26 0;
#X connect 4 0 1 1;
#X connect 4 0 1 4;
#X connect 5 0 1 2;
#X connect 5 0 1 5;
#X connect 6 0 1 3;
#X connect 6 0 1 6;
#X connect 7 0 1 1;
#X connect 7 0 1 4;
#X connect 8 0 1 2;
#X connect 8 0 1 5;
#X connect 9 0 1 3;
#X connect 9 0 1 6;
#X connect 10 0 1 2;
#X connect 10 0 1 5;
#X connect 11 0 1 1;
#X connect 11 0 1 4;
#X connect 12 0 1 3;
#X connect 12 0 1 6;
#X connect 13 0 1 2;
#X connect 13 0 1 5;
#X connect 14 0 1 3;
#X connect 14 0 1 6;
#X connect 15 0 1 1;
#X connect 15 0 1 4;
#X connect 16 0 1 1;
#X connect 16 0 1 4;
#X connect 17 0 1 2;
#X connect 17 0 1 5;
#X connect 18 0 1 3;
#X connect 18 0 1 6;
#X connect 19 0 1 1;
#X connect 19 0 1 4;
#X connect 20 0 1 2;
#X connect 20 0 1 5;
#X connect 21 0 1 3;
#X connect 21 0 1 6;
#X connect 22 0 1 1;
#X connect 22 0 1 4;
#X connect 23 0 1 2;
#X connect 23 0 1 5;
#X connect 24 0 1 3;
#X connect 24 0 1 6;
#X connect 25 0 1 1;
#X connect 25 0 1 4;
#X connect 26 0 1 3;
#X connect 26 0 1 6;
#X connect 27 0 1 2;
#X connect 27 0 1 5;
#X connect 28 0 29 0;
#X connect 29 0 2 0;
#X coords 0 -1 1 1 20 20 2 500 370;
#X restore 147 278 pd led-status;
#N canvas 231 135 1010 343 keys 0;
#X obj 100 135 bng 35 250 50 0 empty empty empty 0 -10 0 12 #fce0c4 #000000 #000000;
#X obj 135 135 bng 35 250 50 0 empty empty empty 0 -10 0 12 #fce0c4 #000000 #000000;
#X obj 170 135 bng 35 250 50 0 empty empty empty 0 -10 0 12 #fce0c4 #000000 #000000;
#X obj 205 135 bng 35 250 50 0 empty empty empty 0 -10 0 12 #fce0c4 #000000 #000000;
#X obj 240 135 bng 35 250 50 0 empty empty empty 0 -10 0 12 #fce0c4 #000000 #000000;
#X obj 275 135 bng 35 250 50 0 empty empty empty 0 -10 0 12 #fce0c4 #000000 #000000;
#X obj 310 135 bng 35 250 50 0 empty empty empty 0 -10 0 12 #fce0c4 #000000 #000000;
#X obj 345 135 bng 35 250 50 0 empty empty empty 0 -10 0 12 #fce0c4 #000000 #000000;
#X obj 380 135 bng 35 250 50 0 empty empty empty 0 -10 0 12 #fce0c4 #000000 #000000;
#X obj 415 135 bng 35 250 50 0 empty empty empty 0 -10 0 12 #fce0c4 #000000 #000000;
#X obj 450 135 bng 35 250 50 0 empty empty empty 0 -10 0 12 #fce0c4 #000000 #000000;
#X obj 485 135 bng 35 250 50 0 empty empty empty 0 -10 0 12 #fce0c4 #000000 #000000;
#X obj 520 135 bng 35 250 50 0 empty empty empty 0 -10 0 12 #fce0c4 #000000 #000000;
#X obj 117 100 bng 35 250 50 0 empty empty empty 0 -10 0 12 #fce0c4 #000000 #000000;
#X obj 152 100 bng 35 250 50 0 empty empty empty 0 -10 0 12 #fce0c4 #000000 #000000;
#X obj 222 100 bng 35 250 50 0 empty empty empty 0 -10 0 12 #fce0c4 #000000 #000000;
#X obj 257 100 bng 35 250 50 0 empty empty empty 0 -10 0 12 #fce0c4 #000000 #000000;
#X obj 292 100 bng 35 250 50 0 empty empty empty 0 -10 0 12 #fce0c4 #000000 #000000;
#X obj 363 100 bng 35 250 50 0 empty empty empty 0 -10 0 12 #fce0c4 #000000 #000000;
#X obj 398 100 bng 35 250 50 0 empty empty empty 0 -10 0 12 #fce0c4 #000000 #000000;
#X obj 467 100 bng 35 250 50 0 empty empty empty 0 -10 0 12 #fce0c4 #000000 #000000;
#X obj 502 100 bng 35 250 50 0 empty empty empty 0 -10 0 12 #fce0c4 #000000 #000000;
#X obj 537 100 bng 35 250 50 0 empty empty empty 0 -10 0 12 #fce0c4 #000000 #000000;
#X msg 48 250 0;
#X msg 75 200 1;
#X msg 98 250 2;
#X msg 125 200 3;
#X msg 148 250 4;
#X msg 198 250 5;
#X msg 225 200 6;
#X msg 248 250 7;
#X msg 275 200 8;
#X msg 298 250 9;
#X msg 325 200 10;
#X msg 348 251 11;
#X msg 398 250 12;
#X msg 420 200 13;
#X msg 448 250 14;
#X msg 470 200 15;
#X msg 498 249 16;
#X msg 548 250 17;
#X msg 570 200 18;
#X msg 598 250 19;
#X msg 620 200 20;
#X msg 648 250 21;
#X msg 670 200 22;
#X msg 698 250 23;
#X obj 48 273 s \$0-n;
#X obj 98 273 s \$0-n;
#X obj 148 273 s \$0-n;
#X obj 198 273 s \$0-n;
#X obj 248 273 s \$0-n;
#X obj 298 273 s \$0-n;
#X obj 348 273 s \$0-n;
#X obj 398 273 s \$0-n;
#X obj 448 273 s \$0-n;
#X obj 498 273 s \$0-n;
#X obj 548 273 s \$0-n;
#X obj 598 273 s \$0-n;
#X obj 648 273 s \$0-n;
#X obj 698 273 s \$0-n;
#X obj 75 223 s \$0-n;
#X obj 125 223 s \$0-n;
#X obj 225 223 s \$0-n;
#X obj 275 223 s \$0-n;
#X obj 325 223 s \$0-n;
#X obj 420 223 s \$0-n;
#X obj 470 223 s \$0-n;
#X obj 570 223 s \$0-n;
#X obj 620 223 s \$0-n;
#X obj 670 223 s \$0-n;
#X obj 555 135 bng 35 250 50 0 empty empty empty 0 -10 0 12 #fce0c4 #000000 #000000;
#X obj 841 256 s notes;
#X obj 890 134 r \$0-n;
#X obj 890 159 expr $f1 + 60;
#X obj 590 102 vsl 20 65 0 500 0 0 empty empty H 6 10 0 12 #fcfcfc #000000 #000000 0 1;
#X obj 610 102 vsl 20 65 0 127 0 0 empty empty V 6 10 0 12 #fcfcfc #000000 #000000 0 1;
#X obj 590 44 loadbang;
#X msg 590 69 5;
#X obj 706 200 s \$0hold;
#X obj 707 176 s \$0vel;
#X obj 792 159 delay;
#X obj 824 134 r \$0hold;
#X obj 792 109 r \$0-n;
#X obj 943 184 r \$0vel;
#X obj 890 209 pack f f;
#X obj 792 184 f;
#X obj 792 209 pack f 0;
#X obj 792 134 b;
#X text 789 81 simulates key down and key up;
#X msg 624 69 100;
#X connect 0 0 23 0;
#X connect 1 0 25 0;
#X connect 2 0 27 0;
#X connect 3 0 28 0;
#X connect 4 0 30 0;
#X connect 5 0 32 0;
#X connect 6 0 34 0;
#X connect 7 0 35 0;
#X connect 8 0 37 0;
#X connect 9 0 39 0;
#X connect 10 0 40 0;
#X connect 11 0 42 0;
#X connect 12 0 44 0;
#X connect 13 0 24 0;
#X connect 14 0 26 0;
#X connect 15 0 29 0;
#X connect 16 0 31 0;
#X connect 17 0 33 0;
#X connect 18 0 36 0;
#X connect 19 0 38 0;
#X connect 20 0 41 0;
#X connect 21 0 43 0;
#X connect 22 0 45 0;
#X connect 23 0 47 0;
#X connect 24 0 61 0;
#X connect 25 0 48 0;
#X connect 26 0 62 0;
#X connect 27 0 49 0;
#X connect 28 0 50 0;
#X connect 29 0 63 0;
#X connect 30 0 51 0;
#X connect 31 0 64 0;
#X connect 32 0 52 0;
#X connect 33 0 65 0;
#X connect 34 0 53 0;
#X connect 35 0 54 0;
#X connect 36 0 66 0;
#X connect 37 0 55 0;
#X connect 38 0 67 0;
#X connect 39 0 56 0;
#X connect 40 0 57 0;
#X connect 41 0 68 0;
#X connect 42 0 58 0;
#X connect 43 0 69 0;
#X connect 44 0 59 0;
#X connect 45 0 70 0;
#X connect 46 0 60 0;
#X connect 71 0 46 0;
#X connect 73 0 74 0;
#X connect 74 0 85 0;
#X connect 74 0 86 1;
#X connect 75 0 79 0;
#X connect 76 0 80 0;
#X connect 77 0 78 0;
#X connect 77 0 90 0;
#X connect 78 0 75 0;
#X connect 81 0 86 0;
#X connect 82 0 81 1;
#X connect 83 0 88 0;
#X connect 84 0 85 1;
#X connect 85 0 72 0;
#X connect 86 0 87 0;
#X connect 87 0 72 0;
#X connect 88 0 81 0;
#X connect 90 0 76 0;
#X coords 0 -1 1 1 530 70 2 100 100;
#X restore 173 278 pd keys;
#N canvas 595 401 463 357 aux 0;
#X obj 50 269 s aux;
#X obj 100 100 tgl 35 0 empty empty AUX 7 19 0 12 #c4fcc4 #000000 #000000 0 1;
#X obj 100 75 r midiAux;
#X obj 100 135 bng 35 250 50 0 empty empty AUX 7 19 0 12 #c4fcc4 #000000 #000000;
#X msg 100 178 1;
#X obj 100 202 delay 150;
#X msg 100 226 0;
#X connect 1 0 0 0;
#X connect 2 0 1 0;
#X connect 3 0 4 0;
#X connect 4 0 5 0;
#X connect 4 0 0 0;
#X connect 5 0 6 0;
#X connect 6 0 0 0;
#X coords 0 -1 1 1 35 70 2 100 100;
#X restore 106 278 pd aux;
#N canvas 1301 272 1039 719 knobs 0;
#X obj 103 100 hsl 195 22 0 1 0 0 empty empty Knob1 10 11 0 12 #fcfcc4 #000000 #000000 0 1;
#X obj 103 130 hsl 195 22 0 1 0 0 empty empty Knob2 10 11 0 12 #fcfcc4 #000000 #000000 0 1;
#X obj 103 160 hsl 195 22 0 1 0 0 empty empty Knob3 10 11 0 12 #fcfcc4 #000000 #000000 0 1;
#X obj 103 190 hsl 195 22 0 1 0 0 empty empty Knob4 10 11 0 12 #fcfcc4 #000000 #000000 0 1;
#X obj 342 122 s knob1;
#X obj 342 152 s knob2;
#X obj 342 182 s knob3;
#X obj 342 212 s knob4;
#X obj 7 80 r midiKnob1;
#X obj 7 110 r midiKnob2;
#X obj 7 140 r midiKnob3;
#X obj 7 170 r midiKnob4;
#X connect 0 0 4 0;
#X connect 1 0 5 0;
#X connect 2 0 6 0;
#X connect 3 0 7 0;
#X connect 8 0 0 0;
#X connect 9 0 1 0;
#X connect 10 0 2 0;
#X connect 11 0 3 0;
#X coords 0 -1 1 1 200 112 2 100 100;
#X restore 106 146 pd knobs;
#N canvas 1832 649 816 316 rec 0;
#X obj 131 105 tgl 19 0 empty empty REC -23 11 0 12 #00ff00 #000000 #000000 0 1;
#X obj 437 244 s \$0-vol;
#X obj 131 128 tgl 19 0 empty empty MUTE -29 11 0 12 #fcc4c4 #000000 #000000 0 1;
#X obj 323 174 sel 0 1;
#X obj 346 244 s \$0-mute;
#X obj 323 200 bng 19 250 50 0 empty empty empty 0 -10 0 12 #fcfcfc #000000 #000000;
#X msg 452 108 0;
#X obj 376 77 t b b b;
#X obj 323 147 spigot 1;
#X msg 412 108 0;
#X msg 376 108 1;
#X obj 8 108 r midiMute;
#X obj 131 37 loadbang;
#X msg 131 68 0;
#X obj 196 37 r loadbang1;
#X msg 211 209 \; pd dsp 1 \;;
#X msg 131 209 \; pd dsp 0 \;;
#X obj 131 151 tgl 19 0 empty empty DSP -23 11 0 12 #fcc4c4 #000000 #000000 0 1;
#X obj 131 180 sel 0 1;
#X obj 15 131 r midiDSP;
#X obj 160 105 s tglRec;
#X obj 437 219 f;
#X obj 455 192 r \$0-volslider;
#X msg 581 171 color #FF0000;
#X obj 50 37 r \$0tglcol;
#X obj 644 225 s \$0tglcol;
#X obj 581 81 r tglRec;
#X obj 581 106 metro 2000;
#X obj 684 147 delay 1000;
#X msg 684 171 color #00FF00;
#X connect 0 0 20 0;
#X connect 2 0 8 0;
#X connect 3 0 5 0;
#X connect 3 1 4 0;
#X connect 5 0 7 0;
#X connect 5 0 21 0;
#X connect 6 0 2 0;
#X connect 7 0 10 0;
#X connect 7 1 6 0;
#X connect 7 2 9 0;
#X connect 8 0 3 0;
#X connect 9 0 8 1;
#X connect 10 0 8 1;
#X connect 11 0 2 0;
#X connect 12 0 13 0;
#X connect 13 0 2 0;
#X connect 13 0 0 0;
#X connect 14 0 13 0;
#X connect 17 0 18 0;
#X connect 18 0 16 0;
#X connect 18 1 15 0;
#X connect 19 0 17 0;
#X connect 21 0 1 0;
#X connect 22 0 21 1;
#X connect 23 0 25 0;
#X connect 24 0 0 0;
#X connect 26 0 27 0;
#X connect 27 0 28 0;
#X connect 27 0 23 0;
#X connect 28 0 29 0;
#X connect 29 0 25 0;
#X coords 0 -1 1 1 54 75 2 100 100;
#X restore 507 196 pd rec;
#N canvas 898 652 483 353 enc 0;
#X obj 150 116 bng 25 120 50 0 empty empty - 8 12 0 18 #fcfcc4 #000000 #000000;
#X obj 179 116 bng 25 120 50 0 empty empty + 8 12 0 18 #fcfcc4 #000000 #000000;
#X msg 293 125 1;
#X obj 150 145 bng 25 120 50 0 empty empty * 7 15 0 18 #fcfcc4 #000000 #000000;
#X obj 272 153 s enc;
#X msg 247 125 0;
#X obj 150 299 s encbut;
#X obj 150 43 r midiEnc;
#X obj 150 67 sel 0 1;
#X obj 34 110 r midiEncbut;
#X msg 150 215 1;
#X obj 223 234 delay 200;
#X msg 223 258 0;
#X obj 179 145 tgl 25 0 empty empty * 7 15 0 18 #fcfcc4 #000000 #000000 0 1;
#X text 151 99 Encoder;
#X connect 0 0 5 0;
#X connect 1 0 2 0;
#X connect 2 0 4 0;
#X connect 3 0 10 0;
#X connect 5 0 4 0;
#X connect 7 0 8 0;
#X connect 8 0 0 0;
#X connect 8 1 1 0;
#X connect 9 0 3 0;
#X connect 10 0 6 0;
#X connect 10 0 11 0;
#X connect 11 0 12 0;
#X connect 12 0 6 0;
#X connect 13 0 6 0;
#X coords 0 -1 1 1 54 70 2 150 100;
#X restore 508 121 pd enc;
#N canvas 320 380 388 373 vol 0;
#X obj 154 118 vsl 19 125 0 5 0 0 empty empty VOL -1 -9 0 12 #fcc4c4 #000000 #000000 0 1;
#X obj 39 96 r midiVol;
#X obj 178 118 vsl 19 125 0 1 0 0 empty empty CLP -1 -9 0 12 #fcc4c4 #000000 #000000 0 1;
#X obj 178 254 s \$0-clip;
#X obj 154 277 s \$0-vol;
#X obj 112 300 s \$0-volslider;
#X msg 151 64 1;
#X obj 118 33 loadbang;
#X msg 118 64 1;
#X connect 0 0 5 0;
#X connect 0 0 4 0;
#X connect 1 0 0 0;
#X connect 2 0 3 0;
#X connect 6 0 2 0;
#X connect 7 0 6 0;
#X connect 7 0 8 0;
#X connect 8 0 0 0;
#X coords 0 -1 1 1 51 150 2 150 100;
#X restore 566 121 pd vol and clip;
#N canvas 795 827 665 364 output 0;
#X obj 40 73 catch~ outL;
#X obj 214 73 catch~ outR;
#X obj 39 177 *~;
#X obj 213 177 *~;
#X obj 39 252 dac~;
#X obj 81 253 s~ \$0-vuL;
#X obj 213 253 s~ \$0-vuR;
#X obj 309 73 r \$0-vol;
#X obj 377 73 r \$0-mute;
#X msg 377 97 0;
#X msg 308 135 \$1 150;
#X obj 308 158 vline~;
#X obj 165 40 r \$0-clip;
#X obj 39 213 clip~ -1 1;
#X obj 213 213 clip~ -1 1;
#X obj 146 69 * -1;
#N canvas 937 667 574 380 recorder 0;
#X obj 253 225 inc;
#X obj 198 30 sel 0 1;
#X obj 253 249 makefilename session_%s.wav;
#X obj 150 288 recorder~;
#X obj 7 6 inlet~;
#X obj 58 6 inlet~;
#X obj 7 209 *~;
#X obj 58 209 *~;
#X msg 89 165 \$1 10;
#X obj 244 65 t b b b;
#X msg 144 135 1;
#X obj 89 189 vline~;
#X msg 220 186 1;
#X obj 198 65 t b b;
#X msg 190 186 0;
#X msg 109 134 0;
#X obj 198 6 r tglRec;
#X connect 0 0 2 0;
#X connect 1 0 13 0;
#X connect 1 1 9 0;
#X connect 2 0 3 3;
#X connect 4 0 6 0;
#X connect 5 0 7 0;
#X connect 6 0 3 0;
#X connect 7 0 3 1;
#X connect 8 0 11 0;
#X connect 9 0 10 0;
#X connect 9 1 12 0;
#X connect 9 2 0 0;
#X connect 10 0 8 0;
#X connect 11 0 6 1;
#X connect 11 0 7 1;
#X connect 12 0 3 2;
#X connect 13 0 15 0;
#X connect 13 1 14 0;
#X connect 14 0 3 2;
#X connect 15 0 8 0;
#X connect 16 0 1 0;
#X restore 324 253 pd recorder;
#X obj 52 98 s~ vstL;
#X obj 226 99 s~ vstR;
#X connect 0 0 2 0;
#X connect 0 0 17 0;
#X connect 1 0 3 0;
#X connect 1 0 18 0;
#X connect 2 0 13 0;
#X connect 3 0 14 0;
#X connect 7 0 10 0;
#X connect 8 0 9 0;
#X connect 9 0 10 0;
#X connect 10 0 11 0;
#X connect 11 0 3 1;
#X connect 11 0 2 1;
#X connect 12 0 15 0;
#X connect 12 0 13 2;
#X connect 12 0 14 2;
#X connect 13 0 4 0;
#X connect 13 0 5 0;
#X connect 13 0 16 0;
#X connect 14 0 4 1;
#X connect 14 0 6 0;
#X connect 14 0 16 1;
#X connect 15 0 13 1;
#X connect 15 0 14 1;
#X restore 164 89 pd output and recorder;
#N canvas 1002 375 579 400 fs 0;
#X obj 100 100 tgl 35 0 empty empty FS 11 19 0 12 #c4fcfc #000000 #000000 0 1;
#X obj 43 278 s fs;
#X obj 100 72 r midiFS;
#X obj 100 135 bng 35 250 50 0 empty empty FS 11 19 0 12 #c4fcfc #000000 #000000;
#X msg 100 181 1;
#X msg 111 235 0;
#X obj 111 210 delay 200;
#X connect 0 0 1 0;
#X connect 2 0 0 0;
#X connect 3 0 4 0;
#X connect 4 0 1 0;
#X connect 4 0 6 0;
#X connect 5 0 1 0;
#X connect 6 0 5 0;
#X coords 0 -1 1 1 35 70 2 100 100;
#X restore 710 278 pd fs;
#N canvas 1495 522 450 300 midi2notes 0;
#X obj 34 24 notein;
#X obj 34 82 s notes;
#X obj 34 58 pack \$1 \$2;
#X connect 0 0 2 0;
#X connect 0 1 2 1;
#X connect 2 0 1 0;
#X restore 326 89 pd midi2notes;
#N canvas 503 364 511 311 exp 0;
#X obj 100 261 s exp;
#X obj 100 121 vsl 35 125 0 1 0 0 empty empty EXP 6 -9 0 12 #c4fcfc #000000 #000000 0 1;
#X obj 13 97 r midiExp;
#X obj 81 39 r loadbang;
#X obj 158 39 r loadbang1;
#X msg 81 70 0;
#X connect 1 0 0 0;
#X connect 2 0 1 0;
#X connect 3 0 5 0;
#X connect 4 0 5 0;
#X connect 5 0 1 0;
#X coords 0 -1 1 1 35 150 2 100 100;
#X restore 710 121 pd exp;
#N canvas 2015 479 361 382 vu 0;
#X obj 131 203 vu 8 120 empty empty -1 -8 0 10 #404040 #000000 0 0;
#N canvas 151 148 625 417 vu 0;
#X obj 59 129 env~ 1024;
#X obj 161 111 abs~;
#X obj 161 213 snapshot~;
#X obj 161 256 rmstodb;
#X obj 161 21 inlet~;
#X obj 161 288 - 100;
#X obj 59 287 - 100;
#X obj 59 361 outlet;
#X obj 161 361 outlet;
#X text 344 307 Check the help file of env~ and slop~ for more details., f 31;
#X obj 239 89 expr 1000 / $f1;
#X floatatom 239 117 5 0 0 0 - - - 0;
#X obj 161 146 slop~ 0 0 0 0 1e+09;
#X obj 239 18 inlet;
#X floatatom 239 57 5 0 0 0 - - - 0;
#X text 359 89 convert to hz;
#X text 282 118 hz;
#X text 284 57 peak decay time in ms;
#X obj 59 171 t f b;
#X text 345 132 The env~ object is dedicated to RMS analysis. Its output is in dB (0-100 range \, pd style) but needs to be converted to dBFS (and we do that by simply subtracting 100)., f 31;
#X text 345 225 The slop~ object is used here for peak detection. We need to convert the output to dB with rmstodb and also subtract by 100 to convert it to dBFS., f 31;
#X connect 0 0 18 0;
#X connect 1 0 12 0;
#X connect 2 0 3 0;
#X connect 3 0 5 0;
#X connect 4 0 0 0;
#X connect 4 0 1 0;
#X connect 5 0 8 0;
#X connect 6 0 7 0;
#X connect 10 0 11 0;
#X connect 11 0 12 3;
#X connect 12 0 2 0;
#X connect 13 0 14 0;
#X connect 14 0 10 0;
#X connect 18 0 6 0;
#X connect 18 1 2 0;
#X restore 122 145 pd vu;
#X msg 132 84 500;
#X obj 132 60 loadbang;
#X obj 141 203 vu 8 120 empty empty -1 -8 0 10 #404040 #000000 1 0;
#N canvas 151 148 625 417 vu 0;
#X obj 59 129 env~ 1024;
#X obj 161 111 abs~;
#X obj 161 213 snapshot~;
#X obj 161 256 rmstodb;
#X obj 161 21 inlet~;
#X obj 161 288 - 100;
#X obj 59 287 - 100;
#X obj 59 361 outlet;
#X obj 161 361 outlet;
#X text 344 307 Check the help file of env~ and slop~ for more details., f 31;
#X obj 239 89 expr 1000 / $f1;
#X floatatom 239 117 5 0 0 0 - - - 0;
#X obj 161 146 slop~ 0 0 0 0 1e+09;
#X obj 239 18 inlet;
#X floatatom 239 57 5 0 0 0 - - - 0;
#X text 359 89 convert to hz;
#X text 282 118 hz;
#X text 284 57 peak decay time in ms;
#X obj 59 171 t f b;
#X text 345 132 The env~ object is dedicated to RMS analysis. Its output is in dB (0-100 range \, pd style) but needs to be converted to dBFS (and we do that by simply subtracting 100)., f 31;
#X text 345 225 The slop~ object is used here for peak detection. We need to convert the output to dB with rmstodb and also subtract by 100 to convert it to dBFS., f 31;
#X connect 0 0 18 0;
#X connect 1 0 12 0;
#X connect 2 0 3 0;
#X connect 3 0 5 0;
#X connect 4 0 0 0;
#X connect 4 0 1 0;
#X connect 5 0 8 0;
#X connect 6 0 7 0;
#X connect 10 0 11 0;
#X connect 11 0 12 3;
#X connect 12 0 2 0;
#X connect 13 0 14 0;
#X connect 14 0 10 0;
#X connect 18 0 6 0;
#X connect 18 1 2 0;
#X restore 195 141 pd vu;
#X obj 122 29 r~ \$0-vuL;
#X obj 195 29 r~ \$0-vuR;
#N canvas 151 148 625 417 vu 0;
#X obj 59 129 env~ 1024;
#X obj 161 111 abs~;
#X obj 161 213 snapshot~;
#X obj 161 256 rmstodb;
#X obj 161 21 inlet~;
#X obj 161 288 - 100;
#X obj 59 287 - 100;
#X obj 59 361 outlet;
#X obj 161 361 outlet;
#X text 344 307 Check the help file of env~ and slop~ for more details., f 31;
#X obj 239 89 expr 1000 / $f1;
#X floatatom 239 117 5 0 0 0 - - - 0;
#X obj 161 146 slop~ 0 0 0 0 1e+09;
#X obj 239 18 inlet;
#X floatatom 239 57 5 0 0 0 - - - 0;
#X text 359 89 convert to hz;
#X text 282 118 hz;
#X text 284 57 peak decay time in ms;
#X obj 59 171 t f b;
#X text 345 132 The env~ object is dedicated to RMS analysis. Its output is in dB (0-100 range \, pd style) but needs to be converted to dBFS (and we do that by simply subtracting 100)., f 31;
#X text 345 225 The slop~ object is used here for peak detection. We need to convert the output to dB with rmstodb and also subtract by 100 to convert it to dBFS., f 31;
#X connect 0 0 18 0;
#X connect 1 0 12 0;
#X connect 2 0 3 0;
#X connect 3 0 5 0;
#X connect 4 0 0 0;
#X connect 4 0 1 0;
#X connect 5 0 8 0;
#X connect 6 0 7 0;
#X connect 10 0 11 0;
#X connect 11 0 12 3;
#X connect 12 0 2 0;
#X connect 13 0 14 0;
#X connect 14 0 10 0;
#X connect 18 0 6 0;
#X connect 18 1 2 0;
#X restore 28 117 pd vu;
#X obj 106 203 vu 8 120 empty empty -1 -8 0 10 #404040 #000000 0 0;
#X obj 116 203 vu 8 120 empty empty -1 -8 0 10 #404040 #000000 0 0;
#X text 109 179 I;
#X text 134 179 O;
#N canvas 151 148 625 417 vu 0;
#X obj 59 129 env~ 1024;
#X obj 161 111 abs~;
#X obj 161 213 snapshot~;
#X obj 161 256 rmstodb;
#X obj 161 21 inlet~;
#X obj 161 288 - 100;
#X obj 59 287 - 100;
#X obj 59 361 outlet;
#X obj 161 361 outlet;
#X text 344 307 Check the help file of env~ and slop~ for more details., f 31;
#X obj 239 89 expr 1000 / $f1;
#X floatatom 239 117 5 0 0 0 - - - 0;
#X obj 161 146 slop~ 0 0 0 0 1e+09;
#X obj 239 18 inlet;
#X floatatom 239 57 5 0 0 0 - - - 0;
#X text 359 89 convert to hz;
#X text 282 118 hz;
#X text 284 57 peak decay time in ms;
#X obj 59 171 t f b;
#X text 345 132 The env~ object is dedicated to RMS analysis. Its output is in dB (0-100 range \, pd style) but needs to be converted to dBFS (and we do that by simply subtracting 100)., f 31;
#X text 345 225 The slop~ object is used here for peak detection. We need to convert the output to dB with rmstodb and also subtract by 100 to convert it to dBFS., f 31;
#X connect 0 0 18 0;
#X connect 1 0 12 0;
#X connect 2 0 3 0;
#X connect 3 0 5 0;
#X connect 4 0 0 0;
#X connect 4 0 1 0;
#X connect 5 0 8 0;
#X connect 6 0 7 0;
#X connect 10 0 11 0;
#X connect 11 0 12 3;
#X connect 12 0 2 0;
#X connect 13 0 14 0;
#X connect 14 0 10 0;
#X connect 18 0 6 0;
#X connect 18 1 2 0;
#X restore 71 117 pd vu;
#X obj 29 29 r~ inL;
#X obj 71 59 r~ inR;
#X connect 1 0 0 0;
#X connect 1 1 0 1;
#X connect 2 0 1 1;
#X connect 2 0 5 1;
#X connect 2 0 13 1;
#X connect 2 0 8 1;
#X connect 3 0 2 0;
#X connect 5 0 4 0;
#X connect 5 1 4 1;
#X connect 6 0 1 0;
#X connect 7 0 5 0;
#X connect 8 0 9 0;
#X connect 8 1 9 1;
#X connect 13 0 10 0;
#X connect 13 1 10 1;
#X connect 14 0 8 0;
#X connect 15 0 13 0;
#X coords 0 -1 1 1 82 150 2 100 180;
#X restore 621 121 pd vu;
#N canvas 568 325 631 463 info 0;
#X obj 108 288 vstplugin~;
#X obj 30 288 vstplugin~;
#X obj 195 14 loadbang;
#X obj 250 250 tgl 19 0 empty empty Scope 25 10 0 12 #fcfcfc #000000 #000000 0 1;
#X msg 273 384 vis 1;
#X obj 250 356 sel 0 1;
#X msg 250 410 vis 0;
#X obj 313 250 tgl 19 0 empty empty Spectrum 25 10 0 12 #fcfcfc #000000 #000000 0 1;
#X msg 339 384 vis 1;
#X obj 316 356 sel 0 1;
#X msg 316 410 vis 0;
#X obj 12 14 r~ vstL;
#X obj 71 14 r~ vstR;
#X msg 218 74 rewind;
#X obj 195 109 textfile;
#X obj 195 135 unpack s s;
#X obj 195 41 t b b b;
#X msg 272 74 read analyzers.config;
#X msg 262 160 open -e -t \$1;
#X msg 195 186 open -e -t \$1;
#X connect 2 0 16 0;
#X connect 3 0 5 0;
#X connect 4 0 1 0;
#X connect 5 0 6 0;
#X connect 5 1 4 0;
#X connect 6 0 1 0;
#X connect 7 0 9 0;
#X connect 8 0 0 0;
#X connect 9 0 10 0;
#X connect 9 1 8 0;
#X connect 10 0 0 0;
#X connect 11 0 1 0;
#X connect 11 0 0 0;
#X connect 12 0 1 1;
#X connect 12 0 0 1;
#X connect 13 0 14 0;
#X connect 14 0 15 0;
#X connect 15 0 19 0;
#X connect 15 1 18 0;
#X connect 16 0 14 0;
#X connect 16 1 13 0;
#X connect 16 2 17 0;
#X connect 17 0 14 0;
#X connect 18 0 0 0;
#X connect 19 0 1 0;
#X coords 0 -1 1 1 145 19 2 250 250;
#X restore 312 121 pd info;
#N canvas 854 272 347 141 input 0;
#X obj 29 33 adc~;
#X obj 29 61 s~ inL;
#X obj 79 61 s~ inR;
#X connect 0 0 1 0;
#X connect 0 1 2 0;
#X restore 100 89 pd input;
#X text 103 121 O F D 1.6;
#X coords 0 -1 1 1 650 239 2 100 115;
