#N canvas 1013 607 671 408 12;
#X obj 1 201 cnv 19 648 52 empty empty empty 20 12 0 12 #e0e0e0 #404040 0;
#X obj 24 295 + 1;
#X obj 24 221 hradio 25 1 0 24 empty empty Screen 0 -10 0 12 #fcfcfc #000000 #000000 0;
#X text 31 225 1;
#X text 56 225 2;
#X text 81 225 3;
#X text 106 225 4;
#X text 131 225 5;
#X text 156 225 6;
#X text 181 225 7;
#X text 206 225 8;
#X text 231 225 9;
#X text 252 225 10;
#X text 277 225 11;
#X text 302 225 12;
#X text 327 225 13;
#X text 352 225 14;
#X text 377 225 15;
#X text 402 225 16;
#X text 427 225 17;
#X text 452 225 18;
#X text 477 225 19;
#X text 502 225 20;
#X text 527 225 21;
#X text 552 225 22;
#X text 577 225 23;
#X text 602 225 24;
#X obj 81 72 - 1;
#X obj 47 17 r currentScreenNumber;
#X obj 24 319 s switchScreen;
#X obj 47 41 t b f b;
#X msg 47 72 1;
#X msg 111 72 0;
#X obj 24 270 spigot 1;
#X connect 1 0 29 0;
#X connect 2 0 33 0;
#X connect 27 0 2 0;
#X connect 28 0 30 0;
#X connect 30 0 31 0;
#X connect 30 1 27 0;
#X connect 30 2 32 0;
#X connect 31 0 33 1;
#X connect 32 0 33 1;
#X connect 33 0 1 0;
#X coords 0 -1 1 1 650 54 2 0 200;
