#N canvas 1495 522 374 201 12;
#X obj 25 12 inlet~;
#X obj 114 45 inlet;
#X obj 25 92 snapshot~;
#X obj 38 40 loadbang;
#X obj 167 45 f \$1;
#X obj 167 21 loadbang;
#X floatatom 25 120 11 0 0 0 - - - 0;
#X obj 38 65 metro 5;
#X connect 0 0 2 0;
#X connect 1 0 7 1;
#X connect 2 0 6 0;
#X connect 3 0 7 0;
#X connect 4 0 7 1;
#X connect 5 0 4 0;
#X connect 7 0 2 0;
#X coords 0 -1 1 1 80 19 2 25 120;
