#N canvas 398 255 954 422 12;
#X declare -path ../bin;
#X obj 12 10 declare -path ../bin;
#N canvas 310 106 886 567 control 0;
#X obj 201 101 cnv 20 518 374 empty empty empty 20 12 0 12 #e0e0e0 #404040 0;
#X obj 11 12 loadbang;
#X obj 175 11 notein;
#X obj 225 65 s vel;
#X obj 225 40 * 0.00787402;
#X obj 175 39 s note;
#X text 272 66 MIDI to RMS;
#N canvas 333 686 488 220 input 0;
#X obj 103 50 hsl 170 20 0 1 0 0 empty empty Reverb 10 10 0 12 #fcfcfc #000000 #000000 0 1;
#X floatatom 275 51 7 0 0 1 % - - 0;
#X obj 163 95 * 100;
#X obj 163 120 i;
#X obj 100 95 s revmix;
#X connect 0 0 2 0;
#X connect 0 0 4 0;
#X connect 2 0 3 0;
#X connect 3 0 1 0;
#X coords 0 -1 1 1 245 20 2 100 50;
#X restore 206 402 pd input;
#N canvas 924 583 489 226 input 0;
#X obj 103 50 hsl 170 20 0 1 0 0 empty vattack Attack 10 10 0 12 #fcfcfc #000000 #000000 0 1;
#X obj 100 78 pow 2;
#X obj 100 103 * 1000;
#X obj 100 128 i;
#X obj 100 153 s att;
#X floatatom 275 51 7 0 0 1 ms - - 0;
#X connect 0 0 1 0;
#X connect 1 0 2 0;
#X connect 2 0 3 0;
#X connect 3 0 4 0;
#X connect 3 0 5 0;
#X coords 0 -1 1 1 245 20 2 100 50;
#X restore 206 378 pd input;
#N canvas 924 583 546 236 input 0;
#X obj 103 50 hsl 170 20 0 1 0 0 empty vrelease Release 10 10 0 12 #fcfcfc #000000 #000000 0 1;
#X floatatom 275 51 7 0 0 1 ms - - 0;
#X obj 100 75 pow 2;
#X obj 100 125 i;
#X obj 100 100 * 5000;
#X obj 100 150 s rel;
#X connect 0 0 2 0;
#X connect 2 0 4 0;
#X connect 3 0 1 0;
#X connect 3 0 5 0;
#X connect 4 0 3 0;
#X coords 0 -1 1 1 245 20 2 100 50;
#X restore 465 378 pd input;
#N canvas 1243 613 541 194 input 0;
#X obj 103 50 hsl 170 20 1 5 0 0 empty vcarrier Carrier 10 10 0 12 #fcfcfc #000000 #000000 0 1;
#N canvas 1109 737 622 288 carriertype 0;
#X obj 264 30 inlet;
#X msg 281 216 symbol 1:Supersaw;
#X msg 299 191 symbol 2:Saw;
#X msg 318 165 symbol 3:Square;
#X obj 264 54 i;
#X symbolatom 100 101 11 0 0 0 - - - 0;
#X obj 264 79 sel 0 1 2 3 4 5;
#X msg 336 141 symbol 4:Triangle;
#X msg 352 111 symbol 5:Sine;
#X connect 0 0 4 0;
#X connect 1 0 5 0;
#X connect 2 0 5 0;
#X connect 3 0 5 0;
#X connect 4 0 6 0;
#X connect 6 1 1 0;
#X connect 6 2 2 0;
#X connect 6 3 3 0;
#X connect 6 4 7 0;
#X connect 6 5 8 0;
#X connect 7 0 5 0;
#X connect 8 0 5 0;
#X coords 0 -1 1 1 80 20 2 100 100;
#X restore 275 50 pd carriertype;
#X obj 100 125 s param;
#X obj 100 75 i;
#X msg 100 100 carrier \$1;
#X connect 0 0 1 0;
#X connect 0 0 3 0;
#X connect 3 0 4 0;
#X connect 4 0 2 0;
#X coords 0 -1 1 1 255 20 2 100 50;
#X restore 206 138 pd input;
#N canvas 1256 167 541 194 input 0;
#X obj 100 125 s param;
#X obj 100 75 i;
#X obj 103 50 hsl 170 20 1 4 0 0 empty vmodulator Modulator 10 10 0 12 #fcfcfc #000000 #000000 0 1;
#N canvas 1211 208 582 300 type 0;
#X obj 264 30 inlet;
#X obj 264 54 i;
#X obj 264 79 sel 0 1 2 3 4;
#X symbolatom 100 100 11 0 0 0 - - - 0;
#X msg 281 197 symbol 1:Saw;
#X msg 299 172 symbol 2:Square;
#X msg 318 146 symbol 3:Triangle;
#X msg 336 122 symbol 4:Sine;
#X connect 0 0 1 0;
#X connect 1 0 2 0;
#X connect 2 1 4 0;
#X connect 2 2 5 0;
#X connect 2 3 6 0;
#X connect 2 4 7 0;
#X connect 4 0 3 0;
#X connect 5 0 3 0;
#X connect 6 0 3 0;
#X connect 7 0 3 0;
#X coords 0 -1 1 1 80 19 2 100 100;
#X restore 275 51 pd type;
#X msg 100 100 modulator \$1;
#X connect 1 0 4 0;
#X connect 2 0 3 0;
#X connect 2 0 1 0;
#X connect 4 0 0 0;
#X coords 0 -1 1 1 255 20 2 100 50;
#X restore 206 162 pd input;
#N canvas 924 583 489 226 input 0;
#X obj 103 50 hsl 170 20 0 1 0 0 empty vdetune Detune 10 10 0 12 #fcfcfc #000000 #000000 0 1;
#X obj 175 109 i;
#X floatatom 275 51 7 0 0 1 % - - 0;
#X obj 175 84 * 100;
#X msg 100 84 detune \$1;
#X obj 100 109 s param;
#X connect 0 0 3 0;
#X connect 0 0 4 0;
#X connect 1 0 2 0;
#X connect 3 0 1 0;
#X connect 4 0 5 0;
#X coords 0 -1 1 1 245 20 2 100 50;
#X restore 465 162 pd input;
#N canvas 2305 820 489 226 input 0;
#X obj 103 50 hsl 170 20 0 1 0 0 empty voscmix OSC-Mix 10 10 0 12 #fcfcfc #000000 #000000 0 1;
#X obj 175 109 i;
#X floatatom 275 51 7 0 0 1 % - - 0;
#X obj 175 84 * 100;
#X obj 100 109 s param;
#X msg 100 84 oscmix \$1;
#X connect 0 0 3 0;
#X connect 0 0 5 0;
#X connect 1 0 2 0;
#X connect 3 0 1 0;
#X connect 5 0 4 0;
#X coords 0 -1 1 1 245 20 2 100 50;
#X restore 206 324 pd input;
#N canvas 2305 820 489 226 input 0;
#X obj 103 50 hsl 170 20 0 1 0 0 empty voscmix Noise-Mix 10 10 0 12 #fcfcfc #000000 #000000 0 1;
#X obj 191 109 i;
#X floatatom 275 51 7 0 0 1 % - - 0;
#X obj 191 84 * 100;
#X obj 100 109 s param;
#X msg 100 84 noisemix \$1;
#X connect 0 0 3 0;
#X connect 0 0 5 0;
#X connect 1 0 2 0;
#X connect 3 0 1 0;
#X connect 5 0 4 0;
#X coords 0 -1 1 1 245 20 2 100 50;
#X restore 465 323 pd input;
#N canvas 2305 820 489 226 input 0;
#X obj 100 109 s param;
#X msg 100 84 noisetype \$1;
#X obj 100 50 tgl 20 0 empty empty White/Pink\ noise 25 10 0 12 #fcfcfc #000000 #000000 0 1;
#X connect 1 0 0 0;
#X connect 2 0 1 0;
#X coords 0 -1 1 1 245 20 2 100 50;
#X restore 206 114 pd input;
#N canvas 439 405 489 226 input 0;
#X obj 103 50 hsl 170 20 0 1 0 0 empty vfmmod FM\ modulation\ index 10 10 0 12 #fcfcfc #000000 #000000 0 1;
#X floatatom 275 51 7 0 0 1 - - - 0;
#X obj 100 151 s param;
#X msg 100 126 fmmod \$1;
#X obj 100 75 pow 2;
#X obj 100 100 * 1000;
#X connect 0 0 4 0;
#X connect 3 0 2 0;
#X connect 4 0 5 0;
#X connect 5 0 3 0;
#X connect 5 0 1 0;
#X coords 0 -1 1 1 245 20 2 100 50;
#X restore 206 210 pd input;
#N canvas 2400 659 488 220 input 0;
#X obj 103 50 hsl 170 20 0 1 0 0 empty vpw Pulse\ width 10 10 0 12 #fcfcfc #000000 #000000 0 1;
#X floatatom 275 51 7 0 0 1 % - - 0;
#X obj 163 95 * 100;
#X obj 163 120 i;
#X obj 100 119 s param;
#X msg 100 94 pw \$1;
#X connect 0 0 2 0;
#X connect 0 0 5 0;
#X connect 2 0 3 0;
#X connect 3 0 1 0;
#X connect 5 0 4 0;
#X coords 0 -1 1 1 245 20 2 100 50;
#X restore 466 138 pd input;
#N canvas 2400 659 488 220 input 0;
#X obj 103 50 hsl 170 20 -24 24 0 0 empty voffset Offset 10 10 0 12 #fcfcfc #000000 #000000 0 1;
#X floatatom 275 51 7 0 0 1 HT - - 0;
#X obj 100 126 s param;
#X msg 100 101 offset \$1;
#X obj 100 75 i;
#X connect 0 0 4 0;
#X connect 3 0 2 0;
#X connect 4 0 3 0;
#X connect 4 0 1 0;
#X coords 0 -1 1 1 245 20 2 100 50;
#X restore 206 299 pd input;
#N canvas 2400 659 488 220 input 0;
#X obj 103 50 hsl 170 20 -100 100 0 0 empty vfinetune Fine\ tune 10 10 0 12 #fcfcfc #000000 #000000 0 1;
#X floatatom 275 51 7 0 0 1 HT - - 0;
#X obj 100 126 s param;
#X obj 100 75 i;
#X msg 100 101 fine \$1;
#X connect 0 0 3 0;
#X connect 3 0 4 0;
#X connect 3 0 1 0;
#X connect 4 0 2 0;
#X coords 0 -1 1 1 245 20 2 100 50;
#X restore 464 299 pd input;
#X obj 668 446 tgl 20 0 empty empty DSP 25 10 0 12 #c6ffc7 #000000 #000000 0 1;
#X msg 729 466 \; pd dsp \$1 \;;
#N canvas 759 750 489 226 input 0;
#X obj 100 109 s param;
#X obj 100 50 tgl 20 0 empty empty Oscillator\ sync 25 10 0 12 #fcfcfc #000000 #000000 0 1;
#X msg 100 84 sync \$1;
#X connect 1 0 2 0;
#X connect 2 0 0 0;
#X coords 0 -1 1 1 245 20 2 100 50;
#X restore 465 186 pd input;
#N canvas 570 335 541 194 input 0;
#X obj 103 50 hsl 170 20 1 3 0 0 empty vcarrier FM\ type 10 10 0 12 #fcfcfc #000000 #000000 0 1;
#N canvas 610 315 622 288 carriertype 0;
#X obj 264 30 inlet;
#X obj 264 54 i;
#X symbolatom 100 101 11 0 0 0 - - - 0;
#X obj 264 79 sel 0 1 2 3;
#X msg 299 191 symbol 2:Linear;
#X msg 318 165 symbol 3:Relative;
#X msg 281 216 symbol 1:ThrougZ.;
#X connect 0 0 1 0;
#X connect 1 0 3 0;
#X connect 3 1 6 0;
#X connect 3 2 4 0;
#X connect 3 3 5 0;
#X connect 4 0 2 0;
#X connect 5 0 2 0;
#X connect 6 0 2 0;
#X coords 0 -1 1 1 80 20 2 100 100;
#X restore 275 50 pd carriertype;
#X obj 100 125 s param;
#X obj 100 75 i;
#X msg 100 100 fmtype \$1;
#X connect 0 0 1 0;
#X connect 0 0 3 0;
#X connect 3 0 4 0;
#X connect 4 0 2 0;
#X coords 0 -1 1 1 255 20 2 100 50;
#X restore 206 186 pd input;
#N canvas 300 247 683 288 input 0;
#X obj 103 50 hsl 170 20 36 100 0 0 empty vmnote MIDI\ note 10 10 0 12 #fcfcfc #000000 #000000 0 1;
#X floatatom 275 51 7 0 0 1 - - - 0;
#X obj 548 56 i;
#X obj 103 70 hsl 170 20 36 127 0 0 empty vvelo Velocity 10 10 0 12 #fcfcfc #000000 #000000 0 1;
#X floatatom 275 71 7 0 0 1 - - - 0;
#X obj 548 83 i;
#X obj 468 175 s note;
#X obj 519 202 s vel;
#X obj 504 148 f;
#X obj 468 148 f;
#X obj 455 113 t b b;
#X obj 326 50 bng 40 250 50 0 empty empty PLAY 6 21 0 12 #c6ffc7 #000000 #000000;
#X obj 519 176 * 0.00787402;
#X obj 326 132 delay;
#X obj 386 112 r att;
#X msg 326 204 0;
#X obj 326 229 s vel;
#X obj 275 229 s note;
#X obj 275 202 f;
#X obj 326 157 t b b;
#X connect 0 0 2 0;
#X connect 2 0 1 0;
#X connect 2 0 9 1;
#X connect 2 0 18 1;
#X connect 3 0 5 0;
#X connect 5 0 4 0;
#X connect 5 0 8 1;
#X connect 8 0 12 0;
#X connect 9 0 6 0;
#X connect 10 0 9 0;
#X connect 10 1 8 0;
#X connect 11 0 10 0;
#X connect 11 0 13 0;
#X connect 12 0 7 0;
#X connect 13 0 19 0;
#X connect 14 0 13 1;
#X connect 15 0 16 0;
#X connect 18 0 17 0;
#X connect 19 0 18 0;
#X connect 19 1 15 0;
#X coords 0 -1 1 1 266 40 2 100 50;
#X restore 206 428 pd input;
#X msg 11 37 \; vcarrier 1 \; vmodulator 4 \; vattack 0.075 \; vrelease 0.3165 \; vdetune 0.1 \; vpw 0.5 \; voffset 0 \; vfinetune 0 \; vmnote 42 \; vvelo 100 \;;
#N canvas 402 383 488 220 input 0;
#X obj 103 50 hsl 170 20 0 2 0 0 empty voffset Feedback\ carrier 10 10 0 12 #fcfcfc #000000 #000000 0 1;
#X floatatom 275 51 7 0 0 1 % - - 0;
#X obj 100 151 s param;
#X msg 100 126 carrierfb \$1;
#X obj 112 75 * 100;
#X obj 112 100 i;
#X connect 0 0 3 0;
#X connect 0 0 4 0;
#X connect 3 0 2 0;
#X connect 4 0 5 0;
#X connect 5 0 1 0;
#X coords 0 -1 1 1 245 20 2 100 50;
#X restore 206 234 pd input;
#N canvas 402 383 488 220 input 0;
#X obj 103 50 hsl 170 20 0 2 0 0 empty voffset Feedback\ modulator 10 10 0 12 #fcfcfc #000000 #000000 0 1;
#X floatatom 275 51 7 0 0 1 % - - 0;
#X obj 100 151 s param;
#X obj 112 75 * 100;
#X obj 112 100 i;
#X msg 100 126 modulatorfb \$1;
#X connect 0 0 5 0;
#X connect 0 0 3 0;
#X connect 3 0 4 0;
#X connect 4 0 1 0;
#X connect 5 0 2 0;
#X coords 0 -1 1 1 245 20 2 100 50;
#X restore 464 234 pd input;
#X connect 1 0 25 0;
#X connect 2 0 5 0;
#X connect 2 1 4 0;
#X connect 4 0 3 0;
#X connect 20 0 21 0;
#X coords 0 -1 1 1 520 376 2 200 100;
#X restore 12 34 pd control;
#N canvas 340 256 875 530 sound 0;
#X obj 51 101 cnv 20 98 374 empty empty empty 20 12 0 12 #c6ffc7 #404040 0;
#X obj 90 106 vu 10 360 empty empty -1 -10 0 12 #404040 #000000 0 0;
#X obj 102 106 vu 10 360 empty empty -1 -10 0 12 #404040 #000000 1 0;
#X obj 66 69 r envL;
#X obj 114 69 r envR;
#X obj 58 106 vsl 20 359 0 5 0 0 empty empty empty 0 -9 0 12 #fcfcfc #000000 #000000 0 1;
#X obj 58 20 loadbang;
#X msg 58 45 0.5;
#X obj 586 363 *~;
#X obj 639 363 *~;
#X msg 687 317 \$1 50;
#X obj 687 342 vline~;
#X obj 58 487 s vol;
#X obj 687 292 r vol;
#X obj 586 388 dac~, f 8;
#X obj 699 384 env~;
#X obj 699 409 - 100;
#X obj 753 384 env~;
#X obj 753 409 - 100;
#X obj 699 434 s envL;
#X obj 753 434 s envR;
#N canvas 145 184 709 411 jpvoices 0;
#N canvas 336 169 624 425 voice1 0;
#X obj 51 112 r param;
#X obj 51 137 jpvoice~;
#X obj 51 354 outlet~;
#X obj 111 354 outlet~;
#X obj 51 320 *~;
#X obj 104 320 *~;
#X obj 152 274 vline~;
#X obj 205 174 r att;
#X obj 152 194 f;
#X obj 336 174 r rel;
#X obj 152 299 pow~ 2;
#X msg 152 244 \$1 \$2;
#X obj 283 219 pack f f;
#X obj 283 194 f;
#X msg 283 244 0 \$2 \$1;
#X obj 152 219 pack f f;
#X obj 199 113 sel 0;
#X obj 199 86 t f f;
#X obj 132 86 mtof;
#X obj 132 36 inlet;
#X obj 132 61 unpack f f;
#X msg 132 111 f \$1;
#X connect 0 0 1 0;
#X connect 1 0 4 0;
#X connect 1 1 5 0;
#X connect 4 0 2 0;
#X connect 5 0 3 0;
#X connect 6 0 10 0;
#X connect 7 0 13 1;
#X connect 7 0 15 1;
#X connect 8 0 15 0;
#X connect 9 0 12 1;
#X connect 10 0 5 1;
#X connect 10 0 4 1;
#X connect 11 0 6 0;
#X connect 12 0 14 0;
#X connect 13 0 12 0;
#X connect 14 0 6 0;
#X connect 15 0 11 0;
#X connect 16 0 13 0;
#X connect 16 1 8 0;
#X connect 17 0 16 0;
#X connect 17 1 8 1;
#X connect 18 0 21 0;
#X connect 19 0 20 0;
#X connect 20 0 18 0;
#X connect 20 1 17 0;
#X connect 21 0 1 0;
#X restore 34 185 pd voice1;
#X obj 225 78 pack f f f;
#X obj 278 26 r vel;
#X obj 225 26 r note;
#X obj 225 103 route 1 2 3 4 5 6 7 8;
#X obj 225 51 poly 8 1;
#X obj 293 320 outlet~;
#X obj 353 320 outlet~;
#N canvas 528 268 624 425 voice2 0;
#X obj 51 112 r param;
#X obj 51 137 jpvoice~;
#X obj 51 354 outlet~;
#X obj 111 354 outlet~;
#X obj 51 320 *~;
#X obj 104 320 *~;
#X obj 152 274 vline~;
#X obj 205 174 r att;
#X obj 152 194 f;
#X obj 336 174 r rel;
#X obj 152 299 pow~ 2;
#X msg 152 244 \$1 \$2;
#X obj 283 219 pack f f;
#X obj 283 194 f;
#X msg 283 244 0 \$2 \$1;
#X obj 152 219 pack f f;
#X obj 199 113 sel 0;
#X obj 199 86 t f f;
#X obj 132 86 mtof;
#X obj 132 36 inlet;
#X obj 132 61 unpack f f;
#X msg 132 111 f \$1;
#X connect 0 0 1 0;
#X connect 1 0 4 0;
#X connect 1 1 5 0;
#X connect 4 0 2 0;
#X connect 5 0 3 0;
#X connect 6 0 10 0;
#X connect 7 0 13 1;
#X connect 7 0 15 1;
#X connect 8 0 15 0;
#X connect 9 0 12 1;
#X connect 10 0 5 1;
#X connect 10 0 4 1;
#X connect 11 0 6 0;
#X connect 12 0 14 0;
#X connect 13 0 12 0;
#X connect 14 0 6 0;
#X connect 15 0 11 0;
#X connect 16 0 13 0;
#X connect 16 1 8 0;
#X connect 17 0 16 0;
#X connect 17 1 8 1;
#X connect 18 0 21 0;
#X connect 19 0 20 0;
#X connect 20 0 18 0;
#X connect 20 1 17 0;
#X connect 21 0 1 0;
#X restore 107 185 pd voice2;
#N canvas 179 148 624 425 voice3 0;
#X obj 51 112 r param;
#X obj 51 137 jpvoice~;
#X obj 51 354 outlet~;
#X obj 111 354 outlet~;
#X obj 51 320 *~;
#X obj 104 320 *~;
#X obj 152 274 vline~;
#X obj 205 174 r att;
#X obj 152 194 f;
#X obj 336 174 r rel;
#X obj 152 299 pow~ 2;
#X msg 152 244 \$1 \$2;
#X obj 283 219 pack f f;
#X obj 283 194 f;
#X msg 283 244 0 \$2 \$1;
#X obj 152 219 pack f f;
#X obj 199 113 sel 0;
#X obj 199 86 t f f;
#X obj 132 86 mtof;
#X obj 132 36 inlet;
#X obj 132 61 unpack f f;
#X msg 132 111 f \$1;
#X connect 0 0 1 0;
#X connect 1 0 4 0;
#X connect 1 1 5 0;
#X connect 4 0 2 0;
#X connect 5 0 3 0;
#X connect 6 0 10 0;
#X connect 7 0 13 1;
#X connect 7 0 15 1;
#X connect 8 0 15 0;
#X connect 9 0 12 1;
#X connect 10 0 5 1;
#X connect 10 0 4 1;
#X connect 11 0 6 0;
#X connect 12 0 14 0;
#X connect 13 0 12 0;
#X connect 14 0 6 0;
#X connect 15 0 11 0;
#X connect 16 0 13 0;
#X connect 16 1 8 0;
#X connect 17 0 16 0;
#X connect 17 1 8 1;
#X connect 18 0 21 0;
#X connect 19 0 20 0;
#X connect 20 0 18 0;
#X connect 20 1 17 0;
#X connect 21 0 1 0;
#X restore 180 185 pd voice3;
#N canvas 528 268 624 425 voice4 0;
#X obj 51 112 r param;
#X obj 51 137 jpvoice~;
#X obj 51 354 outlet~;
#X obj 111 354 outlet~;
#X obj 51 320 *~;
#X obj 104 320 *~;
#X obj 152 274 vline~;
#X obj 205 174 r att;
#X obj 152 194 f;
#X obj 336 174 r rel;
#X obj 152 299 pow~ 2;
#X msg 152 244 \$1 \$2;
#X obj 283 219 pack f f;
#X obj 283 194 f;
#X msg 283 244 0 \$2 \$1;
#X obj 152 219 pack f f;
#X obj 199 113 sel 0;
#X obj 199 86 t f f;
#X obj 132 86 mtof;
#X obj 132 36 inlet;
#X obj 132 61 unpack f f;
#X msg 132 111 f \$1;
#X connect 0 0 1 0;
#X connect 1 0 4 0;
#X connect 1 1 5 0;
#X connect 4 0 2 0;
#X connect 5 0 3 0;
#X connect 6 0 10 0;
#X connect 7 0 13 1;
#X connect 7 0 15 1;
#X connect 8 0 15 0;
#X connect 9 0 12 1;
#X connect 10 0 5 1;
#X connect 10 0 4 1;
#X connect 11 0 6 0;
#X connect 12 0 14 0;
#X connect 13 0 12 0;
#X connect 14 0 6 0;
#X connect 15 0 11 0;
#X connect 16 0 13 0;
#X connect 16 1 8 0;
#X connect 17 0 16 0;
#X connect 17 1 8 1;
#X connect 18 0 21 0;
#X connect 19 0 20 0;
#X connect 20 0 18 0;
#X connect 20 1 17 0;
#X connect 21 0 1 0;
#X restore 253 185 pd voice4;
#N canvas 179 148 624 425 voice5 0;
#X obj 51 112 r param;
#X obj 51 137 jpvoice~;
#X obj 51 354 outlet~;
#X obj 111 354 outlet~;
#X obj 51 320 *~;
#X obj 104 320 *~;
#X obj 152 274 vline~;
#X obj 205 174 r att;
#X obj 152 194 f;
#X obj 336 174 r rel;
#X obj 152 299 pow~ 2;
#X msg 152 244 \$1 \$2;
#X obj 283 219 pack f f;
#X obj 283 194 f;
#X msg 283 244 0 \$2 \$1;
#X obj 152 219 pack f f;
#X obj 199 113 sel 0;
#X obj 199 86 t f f;
#X obj 132 86 mtof;
#X obj 132 36 inlet;
#X obj 132 61 unpack f f;
#X msg 132 111 f \$1;
#X connect 0 0 1 0;
#X connect 1 0 4 0;
#X connect 1 1 5 0;
#X connect 4 0 2 0;
#X connect 5 0 3 0;
#X connect 6 0 10 0;
#X connect 7 0 13 1;
#X connect 7 0 15 1;
#X connect 8 0 15 0;
#X connect 9 0 12 1;
#X connect 10 0 5 1;
#X connect 10 0 4 1;
#X connect 11 0 6 0;
#X connect 12 0 14 0;
#X connect 13 0 12 0;
#X connect 14 0 6 0;
#X connect 15 0 11 0;
#X connect 16 0 13 0;
#X connect 16 1 8 0;
#X connect 17 0 16 0;
#X connect 17 1 8 1;
#X connect 18 0 21 0;
#X connect 19 0 20 0;
#X connect 20 0 18 0;
#X connect 20 1 17 0;
#X connect 21 0 1 0;
#X restore 326 185 pd voice5;
#N canvas 528 268 624 425 voice6 0;
#X obj 51 112 r param;
#X obj 51 137 jpvoice~;
#X obj 51 354 outlet~;
#X obj 111 354 outlet~;
#X obj 51 320 *~;
#X obj 104 320 *~;
#X obj 152 274 vline~;
#X obj 205 174 r att;
#X obj 152 194 f;
#X obj 336 174 r rel;
#X obj 152 299 pow~ 2;
#X msg 152 244 \$1 \$2;
#X obj 283 219 pack f f;
#X obj 283 194 f;
#X msg 283 244 0 \$2 \$1;
#X obj 152 219 pack f f;
#X obj 199 113 sel 0;
#X obj 199 86 t f f;
#X obj 132 86 mtof;
#X obj 132 36 inlet;
#X obj 132 61 unpack f f;
#X msg 132 111 f \$1;
#X connect 0 0 1 0;
#X connect 1 0 4 0;
#X connect 1 1 5 0;
#X connect 4 0 2 0;
#X connect 5 0 3 0;
#X connect 6 0 10 0;
#X connect 7 0 13 1;
#X connect 7 0 15 1;
#X connect 8 0 15 0;
#X connect 9 0 12 1;
#X connect 10 0 5 1;
#X connect 10 0 4 1;
#X connect 11 0 6 0;
#X connect 12 0 14 0;
#X connect 13 0 12 0;
#X connect 14 0 6 0;
#X connect 15 0 11 0;
#X connect 16 0 13 0;
#X connect 16 1 8 0;
#X connect 17 0 16 0;
#X connect 17 1 8 1;
#X connect 18 0 21 0;
#X connect 19 0 20 0;
#X connect 20 0 18 0;
#X connect 20 1 17 0;
#X connect 21 0 1 0;
#X restore 399 185 pd voice6;
#N canvas 179 148 624 425 voice7 0;
#X obj 51 112 r param;
#X obj 51 137 jpvoice~;
#X obj 51 354 outlet~;
#X obj 111 354 outlet~;
#X obj 51 320 *~;
#X obj 104 320 *~;
#X obj 152 274 vline~;
#X obj 205 174 r att;
#X obj 152 194 f;
#X obj 336 174 r rel;
#X obj 152 299 pow~ 2;
#X msg 152 244 \$1 \$2;
#X obj 283 219 pack f f;
#X obj 283 194 f;
#X msg 283 244 0 \$2 \$1;
#X obj 152 219 pack f f;
#X obj 199 113 sel 0;
#X obj 199 86 t f f;
#X obj 132 86 mtof;
#X obj 132 36 inlet;
#X obj 132 61 unpack f f;
#X msg 132 111 f \$1;
#X connect 0 0 1 0;
#X connect 1 0 4 0;
#X connect 1 1 5 0;
#X connect 4 0 2 0;
#X connect 5 0 3 0;
#X connect 6 0 10 0;
#X connect 7 0 13 1;
#X connect 7 0 15 1;
#X connect 8 0 15 0;
#X connect 9 0 12 1;
#X connect 10 0 5 1;
#X connect 10 0 4 1;
#X connect 11 0 6 0;
#X connect 12 0 14 0;
#X connect 13 0 12 0;
#X connect 14 0 6 0;
#X connect 15 0 11 0;
#X connect 16 0 13 0;
#X connect 16 1 8 0;
#X connect 17 0 16 0;
#X connect 17 1 8 1;
#X connect 18 0 21 0;
#X connect 19 0 20 0;
#X connect 20 0 18 0;
#X connect 20 1 17 0;
#X connect 21 0 1 0;
#X restore 472 185 pd voice7;
#N canvas 528 268 624 425 voice8 0;
#X obj 51 112 r param;
#X obj 51 137 jpvoice~;
#X obj 51 354 outlet~;
#X obj 111 354 outlet~;
#X obj 51 320 *~;
#X obj 104 320 *~;
#X obj 152 274 vline~;
#X obj 205 174 r att;
#X obj 152 194 f;
#X obj 336 174 r rel;
#X obj 152 299 pow~ 2;
#X msg 152 244 \$1 \$2;
#X obj 283 219 pack f f;
#X obj 283 194 f;
#X msg 283 244 0 \$2 \$1;
#X obj 152 219 pack f f;
#X obj 199 113 sel 0;
#X obj 199 86 t f f;
#X obj 132 86 mtof;
#X obj 132 36 inlet;
#X obj 132 61 unpack f f;
#X msg 132 111 f \$1;
#X connect 0 0 1 0;
#X connect 1 0 4 0;
#X connect 1 1 5 0;
#X connect 4 0 2 0;
#X connect 5 0 3 0;
#X connect 6 0 10 0;
#X connect 7 0 13 1;
#X connect 7 0 15 1;
#X connect 8 0 15 0;
#X connect 9 0 12 1;
#X connect 10 0 5 1;
#X connect 10 0 4 1;
#X connect 11 0 6 0;
#X connect 12 0 14 0;
#X connect 13 0 12 0;
#X connect 14 0 6 0;
#X connect 15 0 11 0;
#X connect 16 0 13 0;
#X connect 16 1 8 0;
#X connect 17 0 16 0;
#X connect 17 1 8 1;
#X connect 18 0 21 0;
#X connect 19 0 20 0;
#X connect 20 0 18 0;
#X connect 20 1 17 0;
#X connect 21 0 1 0;
#X restore 545 185 pd voice8;
#X connect 0 0 6 0;
#X connect 0 1 7 0;
#X connect 1 0 4 0;
#X connect 2 0 5 1;
#X connect 3 0 5 0;
#X connect 4 0 0 0;
#X connect 4 1 8 0;
#X connect 4 2 9 0;
#X connect 4 3 10 0;
#X connect 4 4 11 0;
#X connect 4 5 12 0;
#X connect 4 6 13 0;
#X connect 4 7 14 0;
#X connect 5 0 1 0;
#X connect 5 1 1 1;
#X connect 5 2 1 2;
#X connect 8 0 6 0;
#X connect 8 1 7 0;
#X connect 9 0 6 0;
#X connect 9 1 7 0;
#X connect 10 0 6 0;
#X connect 10 1 7 0;
#X connect 11 0 6 0;
#X connect 11 1 7 0;
#X connect 12 0 6 0;
#X connect 12 1 7 0;
#X connect 13 0 6 0;
#X connect 13 1 7 0;
#X connect 14 0 6 0;
#X connect 14 1 7 0;
#X restore 523 68 pd jpvoices;
#X obj 632 123 rev3~, f 23;
#X obj 695 71 loadbang;
#X msg 695 96 100;
#X msg 729 96 90;
#X obj 633 255 *~;
#X obj 665 255 *~;
#X obj 721 160 r revmix;
#X obj 721 185 * 3.14159;
#X obj 721 235 cos;
#X obj 750 235 sin;
#X obj 721 210 * 0.5;
#X obj 552 255 *~ 1;
#X obj 589 255 *~ 1;
#X obj 150 100 scope~;
#X obj 150 384 recorder-ui~;
#X connect 3 0 1 0;
#X connect 4 0 2 0;
#X connect 5 0 12 0;
#X connect 6 0 7 0;
#X connect 7 0 5 0;
#X connect 8 0 14 0;
#X connect 8 0 15 0;
#X connect 8 0 36 0;
#X connect 9 0 14 1;
#X connect 9 0 17 0;
#X connect 9 0 36 1;
#X connect 10 0 11 0;
#X connect 11 0 9 1;
#X connect 11 0 8 1;
#X connect 13 0 10 0;
#X connect 15 0 16 0;
#X connect 16 0 19 0;
#X connect 17 0 18 0;
#X connect 18 0 20 0;
#X connect 21 0 22 0;
#X connect 21 0 33 0;
#X connect 21 0 35 0;
#X connect 21 1 22 1;
#X connect 21 1 34 0;
#X connect 22 0 26 0;
#X connect 22 1 27 0;
#X connect 23 0 24 0;
#X connect 23 0 25 0;
#X connect 24 0 22 2;
#X connect 25 0 22 3;
#X connect 26 0 8 0;
#X connect 27 0 9 0;
#X connect 28 0 29 0;
#X connect 29 0 32 0;
#X connect 30 0 33 1;
#X connect 30 0 34 1;
#X connect 31 0 26 1;
#X connect 31 0 27 1;
#X connect 32 0 30 0;
#X connect 32 0 31 0;
#X connect 33 0 8 0;
#X connect 34 0 9 0;
#X coords 0 -1 1 1 400 376 2 50 100;
#X restore 535 34 pd sound;
