#N canvas 39 164 654 532 12;
#X declare -path lib;
#X declare -path ux;
#X declare -path ../out;
#X obj 7 8 declare -path lib;
#X obj 134 8 declare -path ux;
#X obj 346 8 reset;
#N canvas 182 421 997 420 scr1-carrier 0;
#X obj 11 10 r switchScreen1;
#X obj 11 35 s \$0scr1;
#X obj 11 89 r \$0scr1;
#X obj 11 140 screen 1 1;
#X obj 176 15 r s1k1;
#X obj 341 15 r \$0scr1;
#X obj 341 117 screen 1 2;
#X obj 236 15 r carriertype;
#X obj 341 40 expr carriertype;
#X obj 176 141 s carriertype;
#X obj 176 91 i;
#X obj 176 116 catchKnob 1;
#N canvas 367 533 889 288 select 0;
#X obj 322 16 inlet;
#X obj 397 214 outlet;
#X obj 322 41 select 1 2 3 4 5 6 7 8;
#X msg 7 118 symbol Saw;
#X msg 89 118 symbol Square;
#X msg 191 118 symbol Triangle;
#X msg 308 118 symbol Sine;
#X msg 397 118 symbol Cluster;
#X msg 506 118 symbol Fibonacci;
#X msg 631 118 symbol Mirror;
#X msg 738 118 symbol Modulo;
#X connect 0 0 2 0;
#X connect 2 0 3 0;
#X connect 2 1 4 0;
#X connect 2 2 5 0;
#X connect 2 3 6 0;
#X connect 2 4 7 0;
#X connect 2 5 8 0;
#X connect 2 6 9 0;
#X connect 2 7 10 0;
#X connect 3 0 1 0;
#X connect 4 0 1 0;
#X connect 5 0 1 0;
#X connect 6 0 1 0;
#X connect 7 0 1 0;
#X connect 8 0 1 0;
#X connect 9 0 1 0;
#X connect 10 0 1 0;
#X restore 341 66 pd select;
#X obj 176 65 + 1;
#X msg 341 92 Type: \$1;
#X obj 353 203 r \$0scr1;
#X obj 287 203 r detune;
#X obj 353 228 expr detune;
#X obj 235 298 s detune;
#X obj 235 273 catchKnob 0.1;
#X msg 353 303 Detune: \$1 %;
#X obj 353 253 * 100;
#X obj 11 194 sndVal param carrier;
#X obj 11 169 r carriertype;
#X obj 11 249 sndVal param detune;
#X obj 11 224 r detune;
#X msg 11 114 DEMO - Carrier;
#X obj 830 29 v carriertype;
#X obj 830 52 v detune;
#X obj 825 172 r loadbang2;
#X obj 176 40 * 7;
#X obj 679 42 r \$0scr1;
#X obj 514 118 i;
#X obj 514 143 catchKnob 1;
#X obj 514 92 + 1;
#X obj 830 76 v nov;
#X obj 514 42 r s1k2;
#X obj 514 168 s nov;
#X obj 574 42 r nov;
#X obj 679 144 screen 1 3;
#X obj 679 67 expr nov;
#X obj 514 67 * 8;
#X msg 679 119 Voices: \$1;
#X obj 235 203 r s1k3;
#X obj 353 328 screen 1 4;
#X obj 235 228 pow 2;
#X obj 353 278 decimals 2;
#X obj 11 277 r nov;
#X obj 11 302 sndVal param nov;
#X obj 683 219 r \$0scr1;
#X obj 543 289 catchKnob 0.1;
#X obj 683 269 * 100;
#X obj 543 244 pow 2;
#X obj 683 294 decimals 2;
#X msg 683 319 Feedback: \$1 %;
#X obj 830 100 v carrierfb;
#X msg 825 197 \; carriertype 1 \; detune 0.03 \; nov 3 \; carrierfb 0 \;;
#X obj 595 219 r carrierfb;
#X obj 543 314 s carrierfb;
#X obj 683 244 expr carrierfb;
#X obj 11 330 r carrierfb;
#X obj 11 355 sndVal param carrierfb;
#X obj 543 219 r s1k4;
#X obj 683 344 screen 1 5;
#X connect 0 0 1 0;
#X connect 2 0 26 0;
#X connect 4 0 30 0;
#X connect 5 0 8 0;
#X connect 7 0 11 1;
#X connect 7 0 12 0;
#X connect 8 0 11 1;
#X connect 8 0 12 0;
#X connect 10 0 11 0;
#X connect 11 0 9 0;
#X connect 12 0 14 0;
#X connect 13 0 10 0;
#X connect 14 0 6 0;
#X connect 15 0 17 0;
#X connect 16 0 19 1;
#X connect 16 0 21 0;
#X connect 17 0 19 1;
#X connect 17 0 21 0;
#X connect 19 0 18 0;
#X connect 20 0 44 0;
#X connect 21 0 46 0;
#X connect 23 0 22 0;
#X connect 25 0 24 0;
#X connect 26 0 3 0;
#X connect 29 0 56 0;
#X connect 30 0 13 0;
#X connect 31 0 40 0;
#X connect 32 0 33 0;
#X connect 33 0 37 0;
#X connect 34 0 32 0;
#X connect 36 0 41 0;
#X connect 38 0 33 1;
#X connect 38 0 42 0;
#X connect 40 0 33 1;
#X connect 40 0 42 0;
#X connect 41 0 34 0;
#X connect 42 0 39 0;
#X connect 43 0 45 0;
#X connect 45 0 19 0;
#X connect 46 0 20 0;
#X connect 47 0 48 0;
#X connect 49 0 59 0;
#X connect 50 0 58 0;
#X connect 51 0 53 0;
#X connect 52 0 50 0;
#X connect 53 0 54 0;
#X connect 54 0 63 0;
#X connect 57 0 50 1;
#X connect 57 0 51 0;
#X connect 59 0 50 1;
#X connect 59 0 51 0;
#X connect 60 0 61 0;
#X connect 62 0 52 0;
#X restore 7 54 pd scr1-carrier;
#X obj 159 45 cnv 20 450 130 empty empty MIDI 20 12 0 12 #c6ffc7 #404040 0;
#X obj 178 71 r notes;
#X obj 178 96 unpack f f;
#X obj 245 146 s vel;
#X obj 245 121 * 0.00787402;
#X obj 178 146 s note;
#X text 271 101 MIDI to RMS;
#X obj 159 180 cnv 20 450 330 empty empty OUTPUT 20 12 0 12 #ffe3c6 #404040 0;
#X obj 179 260 - 1;
#X obj 180 455 xfade4~, f 24;
#X obj 180 480 throw~ outL;
#X obj 345 480 throw~ outR;
#X obj 262 424 rev3~, f 18;
#X msg 311 390 100;
#X obj 311 365 loadbang;
#X obj 400 435 r mix;
#X obj 179 209 r note;
#X obj 229 209 r vel;
#X obj 179 285 pack f f f;
#X obj 415 8 declare -path ../out;
#X obj 391 330 print -n;
#X msg 391 305 VOICE \$1 MIDI \$2 VELOCITY \$3;
#N canvas 182 421 1083 424 scr2-modulator 0;
#X obj 176 91 i;
#X obj 176 116 catchKnob 1;
#N canvas 367 533 995 288 select 0;
#X obj 322 16 inlet;
#X obj 397 214 outlet;
#X msg 7 118 symbol Saw;
#X msg 89 118 symbol Square;
#X msg 191 118 symbol Triangle;
#X msg 308 118 symbol Sine;
#X msg 397 118 symbol Cluster;
#X msg 506 118 symbol Fibonacci;
#X msg 631 118 symbol Mirror;
#X msg 738 118 symbol Modulo;
#X obj 322 41 select 1 2 3 4 5 6 7 8 9;
#X msg 843 118 symbol Bit;
#X connect 0 0 10 0;
#X connect 2 0 1 0;
#X connect 3 0 1 0;
#X connect 4 0 1 0;
#X connect 5 0 1 0;
#X connect 6 0 1 0;
#X connect 7 0 1 0;
#X connect 8 0 1 0;
#X connect 9 0 1 0;
#X connect 10 0 2 0;
#X connect 10 1 3 0;
#X connect 10 2 4 0;
#X connect 10 3 5 0;
#X connect 10 4 6 0;
#X connect 10 5 7 0;
#X connect 10 6 8 0;
#X connect 10 7 9 0;
#X connect 10 8 11 0;
#X connect 11 0 1 0;
#X restore 350 66 pd select;
#X obj 176 65 + 1;
#X msg 350 92 Type: \$1;
#X obj 235 304 catchKnob 0.1;
#X obj 873 173 r loadbang2;
#X obj 514 118 i;
#X obj 514 143 catchKnob 1;
#X obj 543 289 catchKnob 0.1;
#X obj 696 269 * 100;
#X obj 543 244 pow 2;
#X obj 696 294 decimals 2;
#X msg 696 319 Feedback: \$1 %;
#X obj 11 10 r switchScreen2;
#X obj 11 35 s \$0scr2;
#X obj 11 89 r \$0scr2;
#X msg 11 114 DEMO - Modulator;
#X obj 11 140 screen 2 1;
#X obj 878 30 v modulatortype;
#X obj 11 169 r modulatortype;
#X obj 11 194 sndVal param modulator;
#X obj 236 15 r modulatortype;
#X obj 176 141 s modulatortype;
#X obj 350 40 expr modulatortype;
#X obj 176 15 r s2k1;
#X obj 350 117 screen 2 2;
#X obj 878 101 v modulatorfb;
#X obj 11 330 r modulatorfb;
#X obj 11 355 sndVal param modulatorfb;
#X obj 574 42 r offset;
#X obj 514 168 s offset;
#X obj 679 67 expr offset;
#X obj 11 224 r offset;
#X obj 11 249 sndVal param offset;
#X obj 287 203 r fine;
#X obj 235 329 s fine;
#X obj 353 228 expr fine;
#X obj 11 277 r fine;
#X obj 11 302 sndVal param fine;
#X obj 514 42 r s2k2;
#X obj 235 203 r s2k3;
#X obj 543 219 r s2k4;
#X msg 873 198 \; modulatortype 4 \; offset 0 \; fine 0 \; modulatorfb 0 \;;
#X msg 679 119 Offset: \$1 Halftones;
#X obj 679 144 screen 2 3;
#X obj 514 67 * 48;
#X obj 514 92 - 24;
#X msg 353 303 Fine: \$1 Cent;
#X obj 595 219 r modulatorfb;
#X obj 696 244 expr modulatorfb;
#X obj 543 314 s modulatorfb;
#X obj 353 328 screen 2 4;
#X obj 696 344 screen 2 5;
#X obj 350 15 r \$0scr2;
#X obj 679 42 r \$0scr2;
#X obj 353 203 r \$0scr2;
#X obj 696 219 r \$0scr2;
#X obj 176 40 * 8;
#X obj 878 53 v offset;
#X obj 878 77 v fine;
#X obj 235 228 * 200;
#X obj 235 253 - 100;
#X obj 235 278 i;
#X connect 0 0 1 0;
#X connect 1 0 23 0;
#X connect 2 0 4 0;
#X connect 3 0 0 0;
#X connect 4 0 26 0;
#X connect 5 0 36 0;
#X connect 6 0 43 0;
#X connect 7 0 8 0;
#X connect 8 0 31 0;
#X connect 9 0 51 0;
#X connect 10 0 12 0;
#X connect 11 0 9 0;
#X connect 12 0 13 0;
#X connect 13 0 53 0;
#X connect 14 0 15 0;
#X connect 16 0 17 0;
#X connect 17 0 18 0;
#X connect 20 0 21 0;
#X connect 22 0 1 1;
#X connect 22 0 2 0;
#X connect 24 0 1 1;
#X connect 24 0 2 0;
#X connect 25 0 58 0;
#X connect 28 0 29 0;
#X connect 30 0 8 1;
#X connect 30 0 44 0;
#X connect 32 0 8 1;
#X connect 32 0 44 0;
#X connect 33 0 34 0;
#X connect 35 0 5 1;
#X connect 35 0 48 0;
#X connect 37 0 5 1;
#X connect 37 0 48 0;
#X connect 38 0 39 0;
#X connect 40 0 46 0;
#X connect 41 0 61 0;
#X connect 42 0 11 0;
#X connect 44 0 45 0;
#X connect 46 0 47 0;
#X connect 47 0 7 0;
#X connect 48 0 52 0;
#X connect 49 0 9 1;
#X connect 49 0 10 0;
#X connect 50 0 9 1;
#X connect 50 0 10 0;
#X connect 54 0 24 0;
#X connect 55 0 32 0;
#X connect 56 0 37 0;
#X connect 57 0 50 0;
#X connect 58 0 3 0;
#X connect 61 0 62 0;
#X connect 62 0 63 0;
#X connect 63 0 5 0;
#X restore 7 77 pd scr2-modulator;
#N canvas 82 298 925 427 scr3-oscmix-fm 0;
#X obj 208 89 catchKnob 1;
#X obj 268 21 r oscmix;
#X obj 208 114 s oscmix;
#X obj 342 46 expr oscmix;
#X obj 342 72 pan-indicator;
#X msg 342 98 C-M mix: \$1;
#X obj 12 201 sndVal param oscmix;
#X obj 12 176 r oscmix;
#X obj 782 38 v oscmix;
#X obj 782 155 r loadbang2;
#X obj 11 10 r switchScreen3;
#X obj 11 35 s \$0scr3;
#X obj 11 89 r \$0scr3;
#X msg 11 114 DEMO - MIX/FM;
#X obj 11 140 screen 3 1;
#X obj 342 21 r \$0scr3;
#X obj 342 123 screen 3 2;
#X obj 208 21 r s3k1;
#X obj 466 92 catchKnob 1;
#X obj 604 75 pan-indicator;
#X obj 604 24 r \$0scr3;
#X obj 782 64 v noisemix;
#X obj 526 24 r noisemix;
#X obj 466 117 s noisemix;
#X obj 604 49 expr noisemix;
#X obj 466 24 r s3k2;
#X obj 604 126 screen 3 3;
#X msg 604 101 Noise mix: \$1;
#X obj 210 261 catchKnob 1;
#X obj 357 185 r \$0scr3;
#X obj 782 88 v noisetype;
#X obj 270 185 r noisetype;
#X obj 210 286 s noisetype;
#X obj 357 210 expr noisetype;
#N canvas 367 533 406 225 select 0;
#X obj 44 25 inlet;
#X obj 52 167 outlet;
#X obj 44 50 select 0 1;
#X msg 7 118 symbol White;
#X msg 104 118 symbol Pink;
#X connect 0 0 2 0;
#X connect 2 0 3 0;
#X connect 2 1 4 0;
#X connect 3 0 1 0;
#X connect 4 0 1 0;
#X restore 357 237 pd select;
#X obj 210 185 r s3k3;
#X obj 357 287 screen 3 4;
#X obj 12 230 r noisemix;
#X obj 12 255 sndVal param noisemix;
#X obj 13 282 r noisetype;
#X obj 13 307 sndVal param noisetype;
#X msg 357 262 Noise type: \$1;
#X obj 210 210 * 2;
#X obj 210 235 clip 0 1;
#X obj 501 264 catchKnob 1;
#X obj 648 188 r \$0scr3;
#X obj 782 114 v modidx;
#X msg 782 180 \; oscmix 0 \; noisemix 0 \; noisetype 1 \; modidx 0 \;;
#X obj 14 336 r modidx;
#X obj 14 361 sndVal param modidx;
#X obj 501 240 * 20;
#X obj 501 289 s modidx;
#X obj 561 188 r modidx;
#X obj 648 213 expr modidx;
#X obj 648 273 decimals 2;
#X obj 648 238 * 5;
#X obj 648 323 screen 3 5;
#X obj 501 188 r s3k4;
#X obj 501 213 pow 2;
#X msg 648 298 Phase/FM mod: \$1 %;
#X connect 0 0 2 0;
#X connect 1 0 0 1;
#X connect 1 0 4 0;
#X connect 3 0 0 1;
#X connect 3 0 4 0;
#X connect 4 0 5 0;
#X connect 5 0 16 0;
#X connect 7 0 6 0;
#X connect 9 0 47 0;
#X connect 10 0 11 0;
#X connect 12 0 13 0;
#X connect 13 0 14 0;
#X connect 15 0 3 0;
#X connect 17 0 0 0;
#X connect 18 0 23 0;
#X connect 19 0 27 0;
#X connect 20 0 24 0;
#X connect 22 0 18 1;
#X connect 22 0 19 0;
#X connect 24 0 18 1;
#X connect 24 0 19 0;
#X connect 25 0 18 0;
#X connect 27 0 26 0;
#X connect 28 0 32 0;
#X connect 29 0 33 0;
#X connect 31 0 28 1;
#X connect 31 0 34 0;
#X connect 33 0 28 1;
#X connect 33 0 34 0;
#X connect 34 0 41 0;
#X connect 35 0 42 0;
#X connect 37 0 38 0;
#X connect 39 0 40 0;
#X connect 41 0 36 0;
#X connect 42 0 43 0;
#X connect 43 0 28 0;
#X connect 44 0 51 0;
#X connect 45 0 53 0;
#X connect 48 0 49 0;
#X connect 50 0 44 0;
#X connect 52 0 44 1;
#X connect 52 0 55 0;
#X connect 53 0 44 1;
#X connect 53 0 55 0;
#X connect 54 0 59 0;
#X connect 55 0 54 0;
#X connect 57 0 58 0;
#X connect 58 0 50 0;
#X connect 59 0 56 0;
#X restore 7 100 pd scr3-oscmix-fm;
#N canvas 13 163 925 370 scr4-filter-env 0;
#X obj 782 155 r loadbang2;
#X obj 11 10 r switchScreen4;
#X obj 11 35 s \$0scr4;
#X obj 11 89 r \$0scr4;
#X msg 11 114 DEMO - Filter/Env;
#X obj 11 140 screen 4 1;
#X obj 782 38 v cutoff;
#X obj 782 64 v reso;
#X obj 782 88 v att;
#X obj 782 114 v rel;
#X msg 782 180 \; cutoff 20000 \; reso 0 \; att 5 \; rel 750 \;;
#X obj 208 21 r s4k1;
#X obj 342 21 r \$0scr4;
#X obj 208 129 s cutoff;
#X obj 342 46 expr cutoff;
#X obj 268 21 r cutoff;
#X obj 342 129 screen 4 2;
#X msg 342 104 Cutoff: \$1 Hz;
#X obj 208 46 pow 4;
#X obj 208 104 catchKnob 1500;
#X obj 208 71 * 20000;
#X obj 342 75 decimals 2;
#X obj 611 24 r \$0scr4;
#X obj 611 107 decimals 2;
#X obj 537 24 r reso;
#X obj 477 132 s reso;
#X obj 611 49 expr reso;
#X obj 477 49 pow 2;
#X obj 477 74 * 20;
#X obj 477 107 catchKnob 2;
#X obj 611 161 screen 4 3;
#X obj 477 24 r s4k2;
#X obj 611 74 * 5;
#X msg 611 136 Resonance: \$1 %;
#X obj 343 189 r \$0scr4;
#X obj 209 214 pow 4;
#X obj 209 272 catchKnob 1500;
#X obj 209 239 * 20000;
#X obj 343 243 decimals 2;
#X obj 209 189 r s4k3;
#X msg 343 272 Attack \$1 ms;
#X obj 209 297 s att;
#X obj 269 189 r att;
#X obj 343 214 expr att;
#X obj 343 297 screen 4 4;
#X obj 615 191 r \$0scr4;
#X obj 481 216 pow 4;
#X obj 481 274 catchKnob 1500;
#X obj 481 241 * 20000;
#X obj 615 245 decimals 2;
#X obj 481 191 r s4k4;
#X obj 615 299 screen 4 5;
#X obj 541 191 r rel;
#X obj 481 299 s rel;
#X obj 615 216 expr rel;
#X msg 615 274 Release \$1 ms;
#X obj 11 167 r reso;
#X obj 11 192 sndVal param drive;
#X connect 0 0 10 0;
#X connect 1 0 2 0;
#X connect 3 0 4 0;
#X connect 4 0 5 0;
#X connect 11 0 18 0;
#X connect 12 0 14 0;
#X connect 14 0 19 1;
#X connect 14 0 21 0;
#X connect 15 0 19 1;
#X connect 15 0 21 0;
#X connect 17 0 16 0;
#X connect 18 0 20 0;
#X connect 19 0 13 0;
#X connect 20 0 19 0;
#X connect 21 0 17 0;
#X connect 22 0 26 0;
#X connect 23 0 33 0;
#X connect 24 0 29 1;
#X connect 24 0 32 0;
#X connect 26 0 29 1;
#X connect 26 0 32 0;
#X connect 27 0 28 0;
#X connect 28 0 29 0;
#X connect 29 0 25 0;
#X connect 31 0 27 0;
#X connect 32 0 23 0;
#X connect 33 0 30 0;
#X connect 34 0 43 0;
#X connect 35 0 37 0;
#X connect 36 0 41 0;
#X connect 37 0 36 0;
#X connect 38 0 40 0;
#X connect 39 0 35 0;
#X connect 40 0 44 0;
#X connect 42 0 36 1;
#X connect 42 0 38 0;
#X connect 43 0 36 1;
#X connect 43 0 38 0;
#X connect 45 0 54 0;
#X connect 46 0 48 0;
#X connect 47 0 53 0;
#X connect 48 0 47 0;
#X connect 49 0 55 0;
#X connect 50 0 46 0;
#X connect 52 0 47 1;
#X connect 52 0 49 0;
#X connect 54 0 47 1;
#X connect 54 0 49 0;
#X connect 55 0 51 0;
#X connect 56 0 57 0;
#X restore 7 123 pd scr4-filter-env;
#X obj 436 359 r room;
#X msg 360 390 3500;
#X obj 485 359 r damp;
#X obj 436 384 * 95;
#X obj 485 384 * 100;
#N canvas 43 420 925 370 scr5-reverb 0;
#X obj 782 116 r loadbang2;
#X obj 342 96 decimals 2;
#X obj 11 10 r switchScreen5;
#X obj 11 35 s \$0scr5;
#X obj 11 89 r \$0scr5;
#X msg 11 114 DEMO - Reverb;
#X obj 11 140 screen 5 1;
#X obj 782 38 v room;
#X obj 782 64 v damp;
#X obj 782 88 v mix;
#X msg 782 141 \; room = 0.5 \; damp = 0 \; mix = 0 \;;
#X obj 208 104 catchKnob 0.1;
#X obj 268 21 r room;
#X obj 208 129 s room;
#X obj 342 46 expr room;
#X obj 208 21 r s5k1;
#X obj 342 21 r \$0scr5;
#X obj 342 146 screen 5 2;
#X obj 342 71 * 100;
#X msg 342 121 Roomsize: \$1 %;
#X obj 628 94 decimals 2;
#X obj 494 102 catchKnob 0.1;
#X obj 628 19 r \$0scr5;
#X obj 628 69 * 100;
#X obj 494 19 r s5k2;
#X obj 628 144 screen 5 3;
#X obj 554 19 r damp;
#X obj 494 127 s damp;
#X obj 628 44 expr damp;
#X msg 628 119 Damping: \$1 %;
#X obj 209 250 catchKnob 1;
#X obj 343 233 pan-indicator;
#X msg 343 259 Amount: \$1;
#X obj 269 182 r mix;
#X obj 209 275 s mix;
#X obj 343 207 expr mix;
#X obj 343 284 screen 5 4;
#X obj 209 182 r s5k3;
#X obj 343 182 r \$0scr5;
#X connect 0 0 10 0;
#X connect 1 0 19 0;
#X connect 2 0 3 0;
#X connect 4 0 5 0;
#X connect 5 0 6 0;
#X connect 11 0 13 0;
#X connect 12 0 11 1;
#X connect 12 0 18 0;
#X connect 14 0 11 1;
#X connect 14 0 18 0;
#X connect 15 0 11 0;
#X connect 16 0 14 0;
#X connect 18 0 1 0;
#X connect 19 0 17 0;
#X connect 20 0 29 0;
#X connect 21 0 27 0;
#X connect 22 0 28 0;
#X connect 23 0 20 0;
#X connect 24 0 21 0;
#X connect 26 0 21 1;
#X connect 26 0 23 0;
#X connect 28 0 21 1;
#X connect 28 0 23 0;
#X connect 29 0 25 0;
#X connect 30 0 34 0;
#X connect 31 0 32 0;
#X connect 32 0 36 0;
#X connect 33 0 30 1;
#X connect 33 0 31 0;
#X connect 35 0 30 1;
#X connect 35 0 31 0;
#X connect 37 0 30 0;
#X connect 38 0 35 0;
#X restore 7 147 pd scr5-reverb;
#X obj 179 310 clone the-jpvoice 6;
#X obj 179 235 poly 6 1;
#X obj 179 335 *~ 0.3;
#X obj 309 335 *~ 0.3;
#X obj 254 8 ux 5 1 0 0 4;
#X connect 5 0 6 0;
#X connect 6 0 9 0;
#X connect 6 1 8 0;
#X connect 8 0 7 0;
#X connect 12 0 22 0;
#X connect 13 0 14 0;
#X connect 13 1 15 0;
#X connect 16 0 13 2;
#X connect 16 1 13 3;
#X connect 17 0 16 2;
#X connect 18 0 17 0;
#X connect 18 0 30 0;
#X connect 19 0 13 4;
#X connect 20 0 36 0;
#X connect 21 0 36 1;
#X connect 22 0 25 0;
#X connect 22 0 35 0;
#X connect 25 0 24 0;
#X connect 29 0 32 0;
#X connect 30 0 16 4;
#X connect 31 0 33 0;
#X connect 32 0 16 3;
#X connect 33 0 16 5;
#X connect 35 0 37 0;
#X connect 35 1 38 0;
#X connect 36 0 12 0;
#X connect 36 1 22 1;
#X connect 36 2 22 2;
#X connect 37 0 16 0;
#X connect 37 0 13 0;
#X connect 38 0 16 1;
#X connect 38 0 13 1;
