#N canvas 119 312 981 819 12;
#X declare -path lib;
#X declare -path ux;
#X declare -path ../out;
#X obj 7 8 declare -path lib;
#X obj 134 8 declare -path ux;
#X obj 346 8 reset;
#N canvas 62 104 966 402 scr1-carrier 0;
#X obj 11 10 r switchScreen1;
#X obj 11 35 s \$0scr1;
#X obj 11 89 r \$0scr1;
#X obj 11 140 screen 1 1;
#X obj 176 15 r s1k1;
#X obj 341 15 r \$0scr1;
#X obj 341 117 screen 1 2;
#X obj 236 15 r carriertype;
#X obj 341 40 expr carriertype;
#X obj 176 141 s carriertype;
#X obj 176 91 i;
#X obj 176 116 catchKnob 1;
#N canvas 367 533 889 288 select 0;
#X obj 322 16 inlet;
#X obj 397 214 outlet;
#X obj 322 41 select 1 2 3 4 5 6 7 8;
#X msg 7 118 symbol Saw;
#X msg 89 118 symbol Square;
#X msg 191 118 symbol Triangle;
#X msg 308 118 symbol Sine;
#X msg 397 118 symbol Cluster;
#X msg 506 118 symbol Fibonacci;
#X msg 631 118 symbol Mirror;
#X msg 738 118 symbol Modulo;
#X connect 0 0 2 0;
#X connect 2 0 3 0;
#X connect 2 1 4 0;
#X connect 2 2 5 0;
#X connect 2 3 6 0;
#X connect 2 4 7 0;
#X connect 2 5 8 0;
#X connect 2 6 9 0;
#X connect 2 7 10 0;
#X connect 3 0 1 0;
#X connect 4 0 1 0;
#X connect 5 0 1 0;
#X connect 6 0 1 0;
#X connect 7 0 1 0;
#X connect 8 0 1 0;
#X connect 9 0 1 0;
#X connect 10 0 1 0;
#X restore 341 66 pd select;
#X obj 176 65 + 1;
#X msg 341 92 Type: \$1;
#X obj 353 203 r \$0scr1;
#X obj 287 203 r detune;
#X obj 353 228 expr detune;
#X obj 235 298 s detune;
#X obj 235 273 catchKnob 0.1;
#X msg 353 303 Detune: \$1 %;
#X obj 353 253 * 100;
#X obj 11 194 sndVal param carrier;
#X obj 11 169 r carriertype;
#X obj 11 249 sndVal param detune;
#X obj 11 224 r detune;
#X msg 11 114 DEMO - Carrier;
#X obj 825 172 r loadbang2;
#X obj 176 40 * 7;
#X obj 679 42 r \$0scr1;
#X obj 514 118 i;
#X obj 514 143 catchKnob 1;
#X obj 514 92 + 1;
#X obj 514 42 r s1k2;
#X obj 514 168 s nov;
#X obj 574 42 r nov;
#X obj 679 144 screen 1 3;
#X obj 679 67 expr nov;
#X obj 514 67 * 8;
#X msg 679 119 Voices: \$1;
#X obj 235 203 r s1k3;
#X obj 353 328 screen 1 4;
#X obj 235 228 pow 2;
#X obj 353 278 decimals 2;
#X obj 11 277 r nov;
#X obj 11 302 sndVal param nov;
#X obj 683 219 r \$0scr1;
#X obj 543 295 catchKnob 0.1;
#X obj 543 244 pow 2;
#X obj 683 294 decimals 2;
#X msg 683 319 Feedback: \$1 %;
#X msg 825 197 \; carriertype 1 \; detune 0.03 \; nov 3 \; carrierfb 0 \;;
#X obj 595 219 r carrierfb;
#X obj 543 320 s carrierfb;
#X obj 683 244 expr carrierfb;
#X obj 11 330 r carrierfb;
#X obj 11 355 sndVal param carrierfb;
#X obj 543 219 r s1k4;
#X obj 683 344 screen 1 5;
#X obj 543 269 * 2;
#X obj 683 269 * 50;
#X obj 830 29 var carriertype;
#X obj 830 52 var detune;
#X obj 830 76 var nov;
#X obj 830 100 var carrierfb;
#X connect 0 0 1 0;
#X connect 2 0 26 0;
#X connect 4 0 28 0;
#X connect 5 0 8 0;
#X connect 7 0 11 1;
#X connect 7 0 12 0;
#X connect 8 0 11 1;
#X connect 8 0 12 0;
#X connect 10 0 11 0;
#X connect 11 0 9 0;
#X connect 12 0 14 0;
#X connect 13 0 10 0;
#X connect 14 0 6 0;
#X connect 15 0 17 0;
#X connect 16 0 19 1;
#X connect 16 0 21 0;
#X connect 17 0 19 1;
#X connect 17 0 21 0;
#X connect 19 0 18 0;
#X connect 20 0 41 0;
#X connect 21 0 43 0;
#X connect 23 0 22 0;
#X connect 25 0 24 0;
#X connect 26 0 3 0;
#X connect 27 0 51 0;
#X connect 28 0 13 0;
#X connect 29 0 37 0;
#X connect 30 0 31 0;
#X connect 31 0 34 0;
#X connect 32 0 30 0;
#X connect 33 0 38 0;
#X connect 35 0 31 1;
#X connect 35 0 39 0;
#X connect 37 0 31 1;
#X connect 37 0 39 0;
#X connect 38 0 32 0;
#X connect 39 0 36 0;
#X connect 40 0 42 0;
#X connect 42 0 19 0;
#X connect 43 0 20 0;
#X connect 44 0 45 0;
#X connect 46 0 54 0;
#X connect 47 0 53 0;
#X connect 48 0 59 0;
#X connect 49 0 50 0;
#X connect 50 0 58 0;
#X connect 52 0 47 1;
#X connect 52 0 60 0;
#X connect 54 0 47 1;
#X connect 54 0 60 0;
#X connect 55 0 56 0;
#X connect 57 0 48 0;
#X connect 59 0 47 0;
#X connect 60 0 49 0;
#X restore 7 54 pd scr1-carrier;
#X obj 159 45 cnv 20 330 160 empty empty MIDI 20 12 0 12 #c6ffc7 #404040 0;
#X obj 178 71 r notes;
#X obj 178 96 unpack f f;
#X obj 245 121 * 0.00787402;
#X obj 178 170 s note;
#X text 254 99 MIDI to RMS;
#X obj 496 45 cnv 20 450 330 empty empty OUTPUT 20 12 0 12 #ffe3c6 #404040 0;
#X obj 516 125 - 1;
#X obj 517 320 xfade4~, f 24;
#X obj 517 345 throw~ outL;
#X obj 682 345 throw~ outR;
#X obj 599 289 rev3~, f 18;
#X msg 648 255 100;
#X obj 648 230 loadbang;
#X obj 737 300 r mix;
#X obj 516 74 r note;
#X obj 566 74 r vel;
#X obj 516 150 pack f f f;
#X obj 7 28 declare -path ../out;
#N canvas 41 128 1083 424 scr2-modulator 0;
#X obj 176 91 i;
#X obj 176 116 catchKnob 1;
#N canvas 367 533 995 288 select 0;
#X obj 322 16 inlet;
#X obj 397 214 outlet;
#X msg 7 118 symbol Saw;
#X msg 89 118 symbol Square;
#X msg 191 118 symbol Triangle;
#X msg 308 118 symbol Sine;
#X msg 397 118 symbol Cluster;
#X msg 506 118 symbol Fibonacci;
#X msg 631 118 symbol Mirror;
#X msg 738 118 symbol Modulo;
#X obj 322 41 select 1 2 3 4 5 6 7 8 9;
#X msg 843 118 symbol Bit;
#X connect 0 0 10 0;
#X connect 2 0 1 0;
#X connect 3 0 1 0;
#X connect 4 0 1 0;
#X connect 5 0 1 0;
#X connect 6 0 1 0;
#X connect 7 0 1 0;
#X connect 8 0 1 0;
#X connect 9 0 1 0;
#X connect 10 0 2 0;
#X connect 10 1 3 0;
#X connect 10 2 4 0;
#X connect 10 3 5 0;
#X connect 10 4 6 0;
#X connect 10 5 7 0;
#X connect 10 6 8 0;
#X connect 10 7 9 0;
#X connect 10 8 11 0;
#X connect 11 0 1 0;
#X restore 350 66 pd select;
#X obj 176 65 + 1;
#X msg 350 92 Type: \$1;
#X obj 235 304 catchKnob 0.1;
#X obj 873 173 r loadbang2;
#X obj 514 118 i;
#X obj 514 143 catchKnob 1;
#X obj 543 294 catchKnob 0.1;
#X obj 543 244 pow 2;
#X obj 696 294 decimals 2;
#X msg 696 319 Feedback: \$1 %;
#X obj 11 10 r switchScreen2;
#X obj 11 35 s \$0scr2;
#X obj 11 89 r \$0scr2;
#X msg 11 114 DEMO - Modulator;
#X obj 11 140 screen 2 1;
#X obj 11 169 r modulatortype;
#X obj 11 194 sndVal param modulator;
#X obj 236 15 r modulatortype;
#X obj 176 141 s modulatortype;
#X obj 350 40 expr modulatortype;
#X obj 176 15 r s2k1;
#X obj 350 117 screen 2 2;
#X obj 11 330 r modulatorfb;
#X obj 11 355 sndVal param modulatorfb;
#X obj 574 42 r offset;
#X obj 514 168 s offset;
#X obj 679 67 expr offset;
#X obj 11 224 r offset;
#X obj 11 249 sndVal param offset;
#X obj 287 203 r fine;
#X obj 235 329 s fine;
#X obj 353 228 expr fine;
#X obj 11 277 r fine;
#X obj 11 302 sndVal param fine;
#X obj 514 42 r s2k2;
#X obj 235 203 r s2k3;
#X obj 543 219 r s2k4;
#X msg 873 198 \; modulatortype 4 \; offset 0 \; fine 0 \; modulatorfb 0 \;;
#X msg 679 119 Offset: \$1 Halftones;
#X obj 679 144 screen 2 3;
#X obj 514 67 * 48;
#X obj 514 92 - 24;
#X msg 353 303 Fine: \$1 Cent;
#X obj 595 219 r modulatorfb;
#X obj 696 244 expr modulatorfb;
#X obj 543 319 s modulatorfb;
#X obj 353 328 screen 2 4;
#X obj 696 344 screen 2 5;
#X obj 350 15 r \$0scr2;
#X obj 679 42 r \$0scr2;
#X obj 353 203 r \$0scr2;
#X obj 696 219 r \$0scr2;
#X obj 176 40 * 8;
#X obj 235 228 * 200;
#X obj 235 253 - 100;
#X obj 235 278 i;
#X obj 543 269 * 2;
#X obj 696 269 * 50;
#X obj 878 30 var modulatortype;
#X obj 878 53 var offset;
#X obj 878 77 var fine;
#X obj 878 101 var modulatorfb;
#X connect 0 0 1 0;
#X connect 1 0 21 0;
#X connect 2 0 4 0;
#X connect 3 0 0 0;
#X connect 4 0 24 0;
#X connect 5 0 33 0;
#X connect 6 0 40 0;
#X connect 7 0 8 0;
#X connect 8 0 28 0;
#X connect 9 0 48 0;
#X connect 10 0 59 0;
#X connect 11 0 12 0;
#X connect 12 0 50 0;
#X connect 13 0 14 0;
#X connect 15 0 16 0;
#X connect 16 0 17 0;
#X connect 18 0 19 0;
#X connect 20 0 1 1;
#X connect 20 0 2 0;
#X connect 22 0 1 1;
#X connect 22 0 2 0;
#X connect 23 0 55 0;
#X connect 25 0 26 0;
#X connect 27 0 8 1;
#X connect 27 0 41 0;
#X connect 29 0 8 1;
#X connect 29 0 41 0;
#X connect 30 0 31 0;
#X connect 32 0 5 1;
#X connect 32 0 45 0;
#X connect 34 0 5 1;
#X connect 34 0 45 0;
#X connect 35 0 36 0;
#X connect 37 0 43 0;
#X connect 38 0 56 0;
#X connect 39 0 10 0;
#X connect 41 0 42 0;
#X connect 43 0 44 0;
#X connect 44 0 7 0;
#X connect 45 0 49 0;
#X connect 46 0 9 1;
#X connect 46 0 60 0;
#X connect 47 0 9 1;
#X connect 47 0 60 0;
#X connect 51 0 22 0;
#X connect 52 0 29 0;
#X connect 53 0 34 0;
#X connect 54 0 47 0;
#X connect 55 0 3 0;
#X connect 56 0 57 0;
#X connect 57 0 58 0;
#X connect 58 0 5 0;
#X connect 59 0 9 0;
#X connect 60 0 11 0;
#X restore 7 77 pd scr2-modulator;
#N canvas 103 122 925 427 scr3-oscmix-fm 0;
#X obj 208 89 catchKnob 1;
#X obj 268 21 r oscmix;
#X obj 208 114 s oscmix;
#X obj 342 46 expr oscmix;
#X obj 342 72 pan-indicator;
#X msg 342 98 C-M mix: \$1;
#X obj 12 201 sndVal param oscmix;
#X obj 12 176 r oscmix;
#X obj 782 155 r loadbang2;
#X obj 11 10 r switchScreen3;
#X obj 11 35 s \$0scr3;
#X obj 11 89 r \$0scr3;
#X msg 11 114 DEMO - MIX/FM;
#X obj 11 140 screen 3 1;
#X obj 342 21 r \$0scr3;
#X obj 342 123 screen 3 2;
#X obj 208 21 r s3k1;
#X obj 466 92 catchKnob 1;
#X obj 604 75 pan-indicator;
#X obj 604 24 r \$0scr3;
#X obj 526 24 r noisemix;
#X obj 466 117 s noisemix;
#X obj 604 49 expr noisemix;
#X obj 466 24 r s3k2;
#X obj 604 126 screen 3 3;
#X msg 604 101 Noise mix: \$1;
#X obj 210 261 catchKnob 1;
#X obj 357 185 r \$0scr3;
#X obj 270 185 r noisetype;
#X obj 210 286 s noisetype;
#X obj 357 210 expr noisetype;
#N canvas 367 533 406 225 select 0;
#X obj 44 25 inlet;
#X obj 52 167 outlet;
#X obj 44 50 select 0 1;
#X msg 7 118 symbol White;
#X msg 104 118 symbol Pink;
#X connect 0 0 2 0;
#X connect 2 0 3 0;
#X connect 2 1 4 0;
#X connect 3 0 1 0;
#X connect 4 0 1 0;
#X restore 357 237 pd select;
#X obj 210 185 r s3k3;
#X obj 357 287 screen 3 4;
#X obj 12 230 r noisemix;
#X obj 12 255 sndVal param noisemix;
#X obj 13 282 r noisetype;
#X obj 13 307 sndVal param noisetype;
#X msg 357 262 Noise type: \$1;
#X obj 210 210 * 2;
#X obj 210 235 clip 0 1;
#X obj 501 264 catchKnob 1;
#X obj 648 188 r \$0scr3;
#X msg 782 180 \; oscmix 0 \; noisemix 0 \; noisetype 1 \; modidx 0 \;;
#X obj 14 336 r modidx;
#X obj 14 361 sndVal param modidx;
#X obj 501 240 * 20;
#X obj 501 289 s modidx;
#X obj 561 188 r modidx;
#X obj 648 213 expr modidx;
#X obj 648 273 decimals 2;
#X obj 648 238 * 5;
#X obj 648 323 screen 3 5;
#X obj 501 188 r s3k4;
#X obj 501 213 pow 2;
#X msg 648 298 Phase/FM mod: \$1 %;
#X obj 782 38 var oscmix;
#X obj 782 64 var noisemix;
#X obj 782 88 var noisetype;
#X obj 782 114 var modidx;
#X connect 0 0 2 0;
#X connect 1 0 0 1;
#X connect 1 0 4 0;
#X connect 3 0 0 1;
#X connect 3 0 4 0;
#X connect 4 0 5 0;
#X connect 5 0 15 0;
#X connect 7 0 6 0;
#X connect 8 0 43 0;
#X connect 9 0 10 0;
#X connect 11 0 12 0;
#X connect 12 0 13 0;
#X connect 14 0 3 0;
#X connect 16 0 0 0;
#X connect 17 0 21 0;
#X connect 18 0 25 0;
#X connect 19 0 22 0;
#X connect 20 0 17 1;
#X connect 20 0 18 0;
#X connect 22 0 17 1;
#X connect 22 0 18 0;
#X connect 23 0 17 0;
#X connect 25 0 24 0;
#X connect 26 0 29 0;
#X connect 27 0 30 0;
#X connect 28 0 26 1;
#X connect 28 0 31 0;
#X connect 30 0 26 1;
#X connect 30 0 31 0;
#X connect 31 0 38 0;
#X connect 32 0 39 0;
#X connect 34 0 35 0;
#X connect 36 0 37 0;
#X connect 38 0 33 0;
#X connect 39 0 40 0;
#X connect 40 0 26 0;
#X connect 41 0 47 0;
#X connect 42 0 49 0;
#X connect 44 0 45 0;
#X connect 46 0 41 0;
#X connect 48 0 41 1;
#X connect 48 0 51 0;
#X connect 49 0 41 1;
#X connect 49 0 51 0;
#X connect 50 0 55 0;
#X connect 51 0 50 0;
#X connect 53 0 54 0;
#X connect 54 0 46 0;
#X connect 55 0 52 0;
#X restore 7 100 pd scr3-oscmix-fm;
#X obj 773 224 r room;
#X msg 697 255 3500;
#X obj 822 224 r damp;
#X obj 773 249 * 95;
#X obj 822 249 * 100;
#X obj 516 200 *~ 0.3;
#X obj 646 200 *~ 0.3;
#N canvas 157 170 925 370 scr7-reverb 0;
#X obj 782 116 r loadbang2;
#X obj 342 96 decimals 2;
#X msg 11 114 DEMO - Reverb;
#X obj 782 38 v room;
#X obj 782 64 v damp;
#X obj 782 88 v mix;
#X msg 782 141 \; room = 0.5 \; damp = 0 \; mix = 0 \;;
#X obj 208 104 catchKnob 0.1;
#X obj 268 21 r room;
#X obj 208 129 s room;
#X obj 342 46 expr room;
#X obj 342 71 * 100;
#X msg 342 121 Roomsize: \$1 %;
#X obj 628 94 decimals 2;
#X obj 494 102 catchKnob 0.1;
#X obj 628 69 * 100;
#X obj 554 19 r damp;
#X obj 494 127 s damp;
#X obj 628 44 expr damp;
#X msg 628 119 Damping: \$1 %;
#X obj 209 250 catchKnob 1;
#X obj 343 233 pan-indicator;
#X msg 343 259 Amount: \$1;
#X obj 269 182 r mix;
#X obj 209 275 s mix;
#X obj 343 207 expr mix;
#X obj 11 10 r switchScreen7;
#X obj 11 89 r \$0scr7;
#X obj 11 140 screen 7 1;
#X obj 208 21 r s7k1;
#X obj 494 19 r s7k2;
#X obj 342 21 r \$0scr7;
#X obj 628 19 r \$0scr7;
#X obj 209 182 r s7k3;
#X obj 343 182 r \$0scr7;
#X obj 343 284 screen 7 4;
#X obj 342 146 screen 7 2;
#X obj 628 144 screen 7 3;
#X obj 11 35 s \$0scr7;
#X connect 0 0 6 0;
#X connect 1 0 12 0;
#X connect 2 0 28 0;
#X connect 7 0 9 0;
#X connect 8 0 7 1;
#X connect 8 0 11 0;
#X connect 10 0 7 1;
#X connect 10 0 11 0;
#X connect 11 0 1 0;
#X connect 12 0 36 0;
#X connect 13 0 19 0;
#X connect 14 0 17 0;
#X connect 15 0 13 0;
#X connect 16 0 14 1;
#X connect 16 0 15 0;
#X connect 18 0 14 1;
#X connect 18 0 15 0;
#X connect 19 0 37 0;
#X connect 20 0 24 0;
#X connect 21 0 22 0;
#X connect 22 0 35 0;
#X connect 23 0 20 1;
#X connect 23 0 21 0;
#X connect 25 0 20 1;
#X connect 25 0 21 0;
#X connect 26 0 38 0;
#X connect 27 0 2 0;
#X connect 29 0 7 0;
#X connect 30 0 14 0;
#X connect 31 0 10 0;
#X connect 32 0 18 0;
#X connect 33 0 20 0;
#X connect 34 0 25 0;
#X restore 7 214 pd scr7-reverb;
#N canvas 70 195 925 370 scr4-filter 0;
#X obj 782 155 r loadbang2;
#X obj 11 10 r switchScreen4;
#X obj 11 35 s \$0scr4;
#X obj 11 89 r \$0scr4;
#X obj 11 140 screen 4 1;
#X obj 208 21 r s4k1;
#X obj 342 21 r \$0scr4;
#X obj 208 129 s cutoff;
#X obj 342 46 expr cutoff;
#X obj 268 21 r cutoff;
#X obj 342 129 screen 4 2;
#X msg 342 104 Cutoff: \$1 Hz;
#X obj 208 46 pow 4;
#X obj 208 104 catchKnob 1500;
#X obj 342 75 decimals 2;
#X obj 611 24 r \$0scr4;
#X obj 611 107 decimals 2;
#X obj 537 24 r reso;
#X obj 477 132 s reso;
#X obj 611 49 expr reso;
#X obj 477 49 pow 2;
#X obj 477 74 * 20;
#X obj 477 107 catchKnob 2;
#X obj 611 161 screen 4 3;
#X obj 477 24 r s4k2;
#X obj 611 74 * 5;
#X msg 611 136 Resonance: \$1 %;
#X obj 343 189 r \$0scr4;
#X obj 343 243 decimals 2;
#X obj 209 189 r s4k3;
#X obj 343 297 screen 4 4;
#X obj 270 188 r drive;
#X obj 343 214 expr drive;
#X obj 209 297 s drive;
#X msg 343 271 Drive: \$1 %;
#X obj 209 214 pow 2;
#X obj 209 239 * 100;
#X obj 209 272 catchKnob 10;
#X msg 11 114 DEMO - Filter;
#X obj 11 167 r drive;
#X obj 208 71 * 15000;
#X msg 782 180 \; cutoff 15000 \; reso 0 \; drive 0 \;;
#X obj 782 40 var cutoff;
#X obj 782 64 var reso;
#X obj 782 88 var drive;
#X obj 11 218 r cutoff;
#X obj 11 192 sndVal param drive;
#X obj 11 243 sndVal fparam g;
#X connect 0 0 41 0;
#X connect 1 0 2 0;
#X connect 3 0 38 0;
#X connect 5 0 12 0;
#X connect 6 0 8 0;
#X connect 8 0 13 1;
#X connect 8 0 14 0;
#X connect 9 0 13 1;
#X connect 9 0 14 0;
#X connect 11 0 10 0;
#X connect 12 0 40 0;
#X connect 13 0 7 0;
#X connect 14 0 11 0;
#X connect 15 0 19 0;
#X connect 16 0 26 0;
#X connect 17 0 22 1;
#X connect 17 0 25 0;
#X connect 19 0 22 1;
#X connect 19 0 25 0;
#X connect 20 0 21 0;
#X connect 21 0 22 0;
#X connect 22 0 18 0;
#X connect 24 0 20 0;
#X connect 25 0 16 0;
#X connect 26 0 23 0;
#X connect 27 0 32 0;
#X connect 28 0 34 0;
#X connect 29 0 35 0;
#X connect 31 0 28 0;
#X connect 31 0 37 1;
#X connect 32 0 28 0;
#X connect 32 0 37 1;
#X connect 34 0 30 0;
#X connect 35 0 36 0;
#X connect 36 0 37 0;
#X connect 37 0 33 0;
#X connect 38 0 4 0;
#X connect 39 0 46 0;
#X connect 40 0 13 0;
#X connect 45 0 47 0;
#X restore 7 123 pd scr4-filter;
#N canvas 227 64 1434 681 scr5-filter-env 0;
#X obj 1281 178 r loadbang2;
#X obj 11 10 r switchScreen5;
#X obj 11 35 s \$0scr5;
#X obj 1281 31 var featt;
#X obj 1282 56 var fedec;
#X obj 1281 79 var fesus;
#X obj 1281 103 var ferel;
#X obj 11 167 r featt;
#X obj 11 192 sndVal fparam attack;
#X obj 11 216 r fedec;
#X obj 11 241 sndVal fparam decay;
#X obj 11 265 r fesus;
#X obj 11 290 sndVal fparam sustain;
#X obj 11 315 r ferel;
#X obj 11 340 sndVal fparam release;
#X obj 1281 127 var feattshp;
#X obj 1281 151 var ferelshp;
#X obj 11 415 r ferelshp;
#X obj 11 365 r feattshp;
#X obj 11 390 sndVal fparam attackshape;
#X obj 11 440 sndVal fparam releaseshape;
#X obj 11 89 r \$0scr5;
#X obj 11 140 screen 5 1;
#X msg 11 114 Filter envelope;
#X obj 412 115 pow 2;
#X obj 412 140 * 2000;
#X obj 412 165 i;
#X obj 412 190 catchKnob 200;
#X obj 606 115 pow 2;
#X obj 606 164 i;
#X obj 606 140 * 10000;
#X obj 606 190 catchKnob 500;
#X obj 510 40 auxHold;
#X obj 557 269 pack f f;
#X obj 721 225 t b f;
#X obj 1027 120 pow 2;
#X obj 1027 170 i;
#X obj 1027 145 * 10000;
#X obj 1027 195 catchKnob 500;
#X obj 929 46 auxHold;
#X obj 979 262 pack f f;
#X obj 1142 230 t b f;
#X msg 557 295 ATT \$1 DEC \$2 ms;
#X obj 831 154 catchKnob 0.1;
#X msg 979 288 SUS \$1% REL \$2 ms;
#X obj 946 146 * 100;
#X obj 946 171 decimals 0;
#X obj 410 397 * 2;
#X obj 410 422 - 1;
#X obj 410 447 catchKnob 0.2;
#X obj 577 430 moses 0;
#X obj 577 455 abs;
#X obj 577 480 * 100;
#X msg 464 593 ATT curve: Slow \$1 %;
#X msg 752 593 ATT curve: Fast \$1 %;
#X obj 635 479 * 100;
#X msg 617 593 ATT curve: linear;
#X obj 635 504 i;
#X obj 635 529 moses 1;
#X obj 577 505 i;
#X obj 577 530 moses 1;
#X obj 876 397 * 2;
#X obj 876 422 - 1;
#X obj 876 447 catchKnob 0.2;
#X obj 1043 430 moses 0;
#X obj 1043 455 abs;
#X obj 1043 480 * 100;
#X obj 1101 479 * 100;
#X obj 1101 504 i;
#X obj 1101 529 moses 1;
#X obj 1043 505 i;
#X obj 1043 530 moses 1;
#X msg 1218 593 REL curve: Fast \$1 %;
#X msg 930 593 REL curve: Slow \$1 %;
#X msg 1083 593 REL curve: linear;
#X obj 510 15 r s5k1;
#X obj 929 21 r s5k2;
#X obj 410 372 r s5k3;
#X obj 876 372 r s5k4;
#X obj 527 90 r \$0scr5;
#X obj 721 90 r \$0scr5;
#X obj 946 96 r \$0scr5;
#X obj 1142 95 r \$0scr5;
#X obj 545 372 r \$0scr5;
#X obj 1011 372 r \$0scr5;
#X obj 557 320 screen 5 2;
#X obj 979 313 screen 5 3;
#X obj 617 633 screen 5 4;
#X obj 1083 633 screen 5 5;
#X obj 412 215 s featt;
#X obj 527 115 expr featt;
#X obj 659 90 r fedec;
#X obj 721 115 expr fedec;
#X obj 606 215 s fedec;
#X obj 884 96 r fesus;
#X obj 831 179 s fesus;
#X obj 1080 95 r ferel;
#X obj 1027 220 s ferel;
#X obj 1142 120 expr ferel;
#X obj 946 121 expr fesus;
#X obj 461 372 r feattshp;
#X obj 545 397 expr feattshp;
#X obj 410 472 s feattshp;
#X obj 927 372 r ferelshp;
#X obj 876 472 s ferelshp;
#X obj 1011 397 expr ferelshp;
#X obj 465 90 r featt;
#X msg 1281 203 \; featt 10 \; fedec 0 \; fesus 1 \; ferel 1000 \; feattshp 0.5 \; ferelshp 0.5 \;;
#X obj 211 187 spigot;
#X obj 250 161 r envlink;
#X obj 211 236 spigot;
#X obj 211 285 spigot;
#X obj 211 335 spigot;
#X obj 211 385 spigot;
#X obj 211 435 spigot;
#X obj 211 212 isScreen 5;
#X obj 211 261 isScreen 5;
#X obj 211 310 isScreen 5;
#X obj 211 360 isScreen 5;
#X obj 211 410 isScreen 5;
#X obj 211 460 isScreen 5;
#X obj 293 232 s aeatt;
#X obj 293 281 s aedec;
#X obj 293 330 s aesus;
#X obj 293 380 s aerel;
#X obj 293 430 s aeattshp;
#X obj 293 480 s aerelshp;
#X connect 0 0 107 0;
#X connect 1 0 2 0;
#X connect 7 0 8 0;
#X connect 7 0 108 0;
#X connect 9 0 10 0;
#X connect 9 0 110 0;
#X connect 11 0 12 0;
#X connect 11 0 111 0;
#X connect 13 0 14 0;
#X connect 13 0 112 0;
#X connect 17 0 20 0;
#X connect 17 0 114 0;
#X connect 18 0 19 0;
#X connect 18 0 113 0;
#X connect 21 0 23 0;
#X connect 23 0 22 0;
#X connect 24 0 25 0;
#X connect 25 0 26 0;
#X connect 26 0 27 0;
#X connect 27 0 89 0;
#X connect 28 0 30 0;
#X connect 29 0 31 0;
#X connect 30 0 29 0;
#X connect 31 0 93 0;
#X connect 32 0 24 0;
#X connect 32 1 28 0;
#X connect 33 0 42 0;
#X connect 34 0 33 0;
#X connect 34 1 33 1;
#X connect 35 0 37 0;
#X connect 36 0 38 0;
#X connect 37 0 36 0;
#X connect 38 0 97 0;
#X connect 39 0 43 0;
#X connect 39 1 35 0;
#X connect 40 0 44 0;
#X connect 41 0 40 0;
#X connect 41 1 40 1;
#X connect 42 0 85 0;
#X connect 43 0 95 0;
#X connect 44 0 86 0;
#X connect 45 0 46 0;
#X connect 46 0 40 0;
#X connect 47 0 48 0;
#X connect 48 0 49 0;
#X connect 49 0 102 0;
#X connect 50 0 51 0;
#X connect 50 1 55 0;
#X connect 51 0 52 0;
#X connect 52 0 59 0;
#X connect 53 0 87 0;
#X connect 54 0 87 0;
#X connect 55 0 57 0;
#X connect 56 0 87 0;
#X connect 57 0 58 0;
#X connect 58 0 56 0;
#X connect 58 1 54 0;
#X connect 59 0 60 0;
#X connect 60 0 56 0;
#X connect 60 1 53 0;
#X connect 61 0 62 0;
#X connect 62 0 63 0;
#X connect 63 0 104 0;
#X connect 64 0 65 0;
#X connect 64 1 67 0;
#X connect 65 0 66 0;
#X connect 66 0 70 0;
#X connect 67 0 68 0;
#X connect 68 0 69 0;
#X connect 69 0 74 0;
#X connect 69 1 72 0;
#X connect 70 0 71 0;
#X connect 71 0 74 0;
#X connect 71 1 73 0;
#X connect 72 0 88 0;
#X connect 73 0 88 0;
#X connect 74 0 88 0;
#X connect 75 0 32 0;
#X connect 76 0 39 0;
#X connect 77 0 47 0;
#X connect 78 0 61 0;
#X connect 79 0 90 0;
#X connect 80 0 92 0;
#X connect 81 0 99 0;
#X connect 82 0 98 0;
#X connect 83 0 101 0;
#X connect 84 0 105 0;
#X connect 90 0 27 1;
#X connect 90 0 33 0;
#X connect 91 0 31 1;
#X connect 91 0 34 0;
#X connect 92 0 31 1;
#X connect 92 0 34 0;
#X connect 94 0 43 1;
#X connect 94 0 45 0;
#X connect 96 0 38 1;
#X connect 96 0 41 0;
#X connect 98 0 38 1;
#X connect 98 0 41 0;
#X connect 99 0 43 1;
#X connect 99 0 45 0;
#X connect 100 0 49 1;
#X connect 100 0 50 0;
#X connect 101 0 49 1;
#X connect 101 0 50 0;
#X connect 103 0 63 1;
#X connect 103 0 64 0;
#X connect 105 0 63 1;
#X connect 105 0 64 0;
#X connect 106 0 27 1;
#X connect 106 0 33 0;
#X connect 108 0 115 0;
#X connect 109 0 108 1;
#X connect 109 0 110 1;
#X connect 109 0 111 1;
#X connect 109 0 112 1;
#X connect 109 0 113 1;
#X connect 109 0 114 1;
#X connect 110 0 116 0;
#X connect 111 0 117 0;
#X connect 112 0 118 0;
#X connect 113 0 119 0;
#X connect 114 0 120 0;
#X connect 115 0 121 0;
#X connect 116 0 122 0;
#X connect 117 0 123 0;
#X connect 118 0 124 0;
#X connect 119 0 125 0;
#X connect 120 0 126 0;
#X restore 7 147 pd scr5-filter-env;
#N canvas 49 111 1421 704 scr6-amp-env 0;
#X obj 1268 181 r loadbang2;
#X obj 399 118 pow 2;
#X obj 399 168 i;
#X obj 593 118 pow 2;
#X obj 593 167 i;
#X obj 593 143 * 10000;
#X obj 593 193 catchKnob 500;
#X obj 497 43 auxHold;
#X obj 544 272 pack f f;
#X obj 708 228 t b f;
#X obj 1014 123 pow 2;
#X obj 1014 173 i;
#X obj 1014 148 * 10000;
#X obj 1014 198 catchKnob 500;
#X obj 916 49 auxHold;
#X obj 966 265 pack f f;
#X obj 1129 233 t b f;
#X msg 544 298 ATT \$1 DEC \$2 ms;
#X obj 818 157 catchKnob 0.1;
#X msg 966 291 SUS \$1% REL \$2 ms;
#X obj 933 149 * 100;
#X obj 933 174 decimals 0;
#X obj 397 400 * 2;
#X obj 397 425 - 1;
#X obj 397 450 catchKnob 0.2;
#X obj 564 433 moses 0;
#X obj 564 458 abs;
#X obj 564 483 * 100;
#X msg 451 596 ATT curve: Slow \$1 %;
#X msg 739 596 ATT curve: Fast \$1 %;
#X obj 622 482 * 100;
#X msg 604 596 ATT curve: linear;
#X obj 622 507 i;
#X obj 622 532 moses 1;
#X obj 564 508 i;
#X obj 564 533 moses 1;
#X obj 863 400 * 2;
#X obj 863 425 - 1;
#X obj 863 450 catchKnob 0.2;
#X obj 1030 433 moses 0;
#X obj 1030 458 abs;
#X obj 1030 483 * 100;
#X obj 1088 482 * 100;
#X obj 1088 507 i;
#X obj 1088 532 moses 1;
#X obj 1030 508 i;
#X obj 1030 533 moses 1;
#X msg 1205 596 REL curve: Fast \$1 %;
#X msg 917 596 REL curve: Slow \$1 %;
#X msg 1070 596 REL curve: linear;
#X obj 11 10 r switchScreen6;
#X obj 11 35 s \$0scr6;
#X obj 11 89 r \$0scr6;
#X msg 11 114 Amp envelope;
#X obj 11 140 screen 6 1;
#X obj 1268 34 var aeatt;
#X obj 1269 59 var aedec;
#X obj 1268 82 var aesus;
#X obj 1268 106 var aerel;
#X obj 1268 130 var aeattshp;
#X obj 1268 154 var aerelshp;
#X obj 497 18 r s6k1;
#X obj 916 24 r s6k2;
#X obj 514 93 r \$0scr6;
#X obj 708 93 r \$0scr6;
#X obj 933 99 r \$0scr6;
#X obj 1129 98 r \$0scr6;
#X obj 544 323 screen 6 2;
#X obj 966 316 screen 6 3;
#X obj 604 636 screen 6 4;
#X obj 1070 636 screen 6 5;
#X obj 11 167 r aeatt;
#X obj 11 192 sndVal aparam attack;
#X obj 11 216 r aedec;
#X obj 11 241 sndVal aparam decay;
#X obj 11 265 r aesus;
#X obj 11 290 sndVal aparam sustain;
#X obj 11 315 r aerel;
#X obj 11 340 sndVal aparam release;
#X obj 11 365 r aeattshp;
#X obj 11 390 sndVal aparam attackshape;
#X obj 11 415 r aerelshp;
#X obj 11 440 sndVal aparam releaseshape;
#X obj 452 93 r aeatt;
#X obj 399 218 s aeatt;
#X obj 514 118 expr aeatt;
#X obj 646 93 r aedec;
#X obj 708 118 expr aedec;
#X obj 593 218 s aedec;
#X obj 871 99 r aesus;
#X obj 933 124 expr aesus;
#X obj 818 182 s aesus;
#X obj 1067 98 r aerel;
#X obj 1129 123 expr aerel;
#X obj 1014 223 s aerel;
#X obj 448 375 r aeattshp;
#X obj 532 400 expr aeattshp;
#X obj 397 475 s aeattshp;
#X obj 914 375 r aerelshp;
#X obj 863 475 s aerelshp;
#X obj 998 400 expr aerelshp;
#X obj 397 375 r s6k3;
#X obj 532 375 r \$0scr6;
#X obj 863 375 r s6k4;
#X obj 998 375 r \$0scr6;
#X obj 399 143 * 10000;
#X obj 399 193 catchKnob 1000;
#X msg 1268 206 \; aeatt 10 \; aedec 0 \; aesus 1 \; aerel 1000 \; aeattshp 0.5 \; aerelshp 0.5 \;;
#X obj 211 187 spigot;
#X obj 250 161 r envlink;
#X obj 211 236 spigot;
#X obj 211 285 spigot;
#X obj 211 335 spigot;
#X obj 211 385 spigot;
#X obj 211 435 spigot;
#X obj 293 232 s featt;
#X obj 293 281 s fedec;
#X obj 293 330 s fesus;
#X obj 293 380 s ferel;
#X obj 293 430 s feattshp;
#X obj 293 480 s ferelshp;
#X obj 211 212 isScreen 6;
#X obj 211 261 isScreen 6;
#X obj 211 310 isScreen 6;
#X obj 211 360 isScreen 6;
#X obj 211 410 isScreen 6;
#X obj 211 460 isScreen 6;
#X connect 0 0 107 0;
#X connect 1 0 105 0;
#X connect 2 0 106 0;
#X connect 3 0 5 0;
#X connect 4 0 6 0;
#X connect 5 0 4 0;
#X connect 6 0 88 0;
#X connect 7 0 1 0;
#X connect 7 1 3 0;
#X connect 8 0 17 0;
#X connect 9 0 8 0;
#X connect 9 1 8 1;
#X connect 10 0 12 0;
#X connect 11 0 13 0;
#X connect 12 0 11 0;
#X connect 13 0 94 0;
#X connect 14 0 18 0;
#X connect 14 1 10 0;
#X connect 15 0 19 0;
#X connect 16 0 15 0;
#X connect 16 1 15 1;
#X connect 17 0 67 0;
#X connect 18 0 91 0;
#X connect 19 0 68 0;
#X connect 20 0 21 0;
#X connect 21 0 15 0;
#X connect 22 0 23 0;
#X connect 23 0 24 0;
#X connect 24 0 97 0;
#X connect 25 0 26 0;
#X connect 25 1 30 0;
#X connect 26 0 27 0;
#X connect 27 0 34 0;
#X connect 28 0 69 0;
#X connect 29 0 69 0;
#X connect 30 0 32 0;
#X connect 31 0 69 0;
#X connect 32 0 33 0;
#X connect 33 0 31 0;
#X connect 33 1 29 0;
#X connect 34 0 35 0;
#X connect 35 0 31 0;
#X connect 35 1 28 0;
#X connect 36 0 37 0;
#X connect 37 0 38 0;
#X connect 38 0 99 0;
#X connect 39 0 40 0;
#X connect 39 1 42 0;
#X connect 40 0 41 0;
#X connect 41 0 45 0;
#X connect 42 0 43 0;
#X connect 43 0 44 0;
#X connect 44 0 49 0;
#X connect 44 1 47 0;
#X connect 45 0 46 0;
#X connect 46 0 49 0;
#X connect 46 1 48 0;
#X connect 47 0 70 0;
#X connect 48 0 70 0;
#X connect 49 0 70 0;
#X connect 50 0 51 0;
#X connect 52 0 53 0;
#X connect 53 0 54 0;
#X connect 61 0 7 0;
#X connect 62 0 14 0;
#X connect 63 0 85 0;
#X connect 64 0 87 0;
#X connect 65 0 90 0;
#X connect 66 0 93 0;
#X connect 71 0 72 0;
#X connect 71 0 108 0;
#X connect 73 0 74 0;
#X connect 73 0 110 0;
#X connect 75 0 76 0;
#X connect 75 0 111 0;
#X connect 77 0 78 0;
#X connect 77 0 112 0;
#X connect 79 0 80 0;
#X connect 79 0 113 0;
#X connect 81 0 82 0;
#X connect 81 0 114 0;
#X connect 83 0 8 0;
#X connect 83 0 106 1;
#X connect 85 0 8 0;
#X connect 85 0 106 1;
#X connect 86 0 6 1;
#X connect 86 0 9 0;
#X connect 87 0 6 1;
#X connect 87 0 9 0;
#X connect 89 0 18 1;
#X connect 89 0 20 0;
#X connect 90 0 18 1;
#X connect 90 0 20 0;
#X connect 92 0 13 1;
#X connect 92 0 16 0;
#X connect 93 0 13 1;
#X connect 93 0 16 0;
#X connect 95 0 24 1;
#X connect 95 0 25 0;
#X connect 96 0 24 1;
#X connect 96 0 25 0;
#X connect 98 0 38 1;
#X connect 98 0 39 0;
#X connect 100 0 38 1;
#X connect 100 0 39 0;
#X connect 101 0 22 0;
#X connect 102 0 96 0;
#X connect 103 0 36 0;
#X connect 104 0 100 0;
#X connect 105 0 2 0;
#X connect 106 0 84 0;
#X connect 108 0 121 0;
#X connect 109 0 108 1;
#X connect 109 0 110 1;
#X connect 109 0 111 1;
#X connect 109 0 112 1;
#X connect 109 0 113 1;
#X connect 109 0 114 1;
#X connect 110 0 122 0;
#X connect 111 0 123 0;
#X connect 112 0 124 0;
#X connect 113 0 125 0;
#X connect 114 0 126 0;
#X connect 121 0 115 0;
#X connect 122 0 116 0;
#X connect 123 0 117 0;
#X connect 124 0 118 0;
#X connect 125 0 119 0;
#X connect 126 0 120 0;
#X restore 7 171 pd scr6-amp-env;
#X obj 245 170 s vel;
#N canvas 119 26 637 477 scrX-settings 0;
#X obj 432 132 var envlink;
#X obj 428 199 r loadbang2;
#X msg 428 224 \; envlink 1 \; oneshot 1 \;;
#X obj 19 277 r oneshot;
#X obj 19 326 r oneshot;
#X obj 19 302 sndVal fparam oneshot;
#X obj 19 351 sndVal aparam oneshot;
#X connect 1 0 2 0;
#X connect 3 0 5 0;
#X connect 4 0 6 0;
#X restore 8 285 pd scrX-settings;
#X obj 245 146 pow 0.6;
#X obj 346 71 bendin;
#X obj 346 96 - 8192;
#X obj 346 121 / 8192;
#X obj 346 171 s bend;
#X obj 346 146 * 4;
#X obj 412 71 ctlin;
#X obj 412 96 / 127;
#X obj 412 146 s modidx;
#X obj 412 121 * 2;
#N canvas 607 534 418 109 preset 0;
#X obj 75 34 r presetload;
#X obj 14 8 r presetsave;
#X obj 174 41 r loadbang5;
#X obj 14 61 preset ../presets/;
#X connect 0 0 3 1;
#X connect 1 0 3 0;
#X connect 2 0 3 2;
#X restore 413 8 pd preset;
#N canvas 51 100 870 354 scr8-presets 0;
#X obj 11 285 spigot;
#X obj 11 241 r auxOn;
#X obj 11 265 bng 15 250 50 0 empty empty empty 17 7 0 10 #fcfcfc #000000 #000000;
#X obj 212 102 * 20;
#X msg 183 53 0;
#X obj 212 126 i;
#X obj 478 102 * 20;
#X msg 449 53 0;
#X obj 478 126 i;
#X msg 293 122 Save as preset \$1;
#X msg 556 119 Load preset \$1;
#X msg 707 53 Select and hit AUX;
#X msg 184 174 0;
#X msg 444 180 0;
#N canvas 241 219 511 329 process 0;
#X obj 21 8 inlet;
#X obj 21 99 spigot;
#X text 75 98 load;
#X obj 147 99 spigot;
#X text 201 98 save;
#X obj 147 149 s presetsave;
#X obj 39 66 r \$0-plnr;
#X obj 186 74 r \$0-psnr;
#X obj 147 124 f;
#X obj 21 124 f;
#X obj 21 149 s presetload;
#X obj 278 254 s led;
#X obj 260 144 t b b;
#X obj 292 169 delay 1000;
#X msg 193 218 DONE;
#X msg 326 218 Select and hit AUX;
#X msg 260 214 3;
#X msg 292 214 0;
#X obj 193 255 screen 8 4;
#X obj 326 254 screen 8 4;
#X connect 0 0 1 0;
#X connect 0 0 3 0;
#X connect 1 0 9 0;
#X connect 3 0 8 0;
#X connect 6 0 1 1;
#X connect 6 0 9 1;
#X connect 7 0 3 1;
#X connect 7 0 8 1;
#X connect 8 0 5 0;
#X connect 8 0 12 0;
#X connect 9 0 10 0;
#X connect 9 0 12 0;
#X connect 12 0 16 0;
#X connect 12 0 14 0;
#X connect 12 1 13 0;
#X connect 13 0 15 0;
#X connect 13 0 17 0;
#X connect 14 0 18 0;
#X connect 15 0 19 0;
#X connect 16 0 11 0;
#X connect 17 0 11 0;
#X restore 11 310 pd process;
#X obj 105 245 r currentScreenNumber;
#X obj 212 154 s \$0-psnr;
#X obj 478 154 s \$0-plnr;
#X obj 556 92 r \$0-plnr;
#X obj 293 95 r \$0-psnr;
#X msg 6 112 DEMO - Presets;
#X obj 184 200 s \$0-plnr;
#X obj 444 204 s \$0-psnr;
#X obj 6 6 r switchScreen8;
#X obj 6 30 s \$0scr8;
#X obj 6 87 r \$0scr8;
#X obj 6 137 screen 8 1;
#X obj 183 28 r \$0scr8;
#X obj 449 28 r \$0scr8;
#X obj 707 28 r \$0scr8;
#X obj 707 78 screen 8 4;
#X obj 556 143 screen 8 3;
#X obj 293 146 screen 8 2;
#X obj 68 265 == 8;
#X obj 212 78 r s8k1;
#X obj 478 78 r s8k2;
#X connect 0 0 14 0;
#X connect 1 0 2 0;
#X connect 2 0 0 0;
#X connect 3 0 5 0;
#X connect 4 0 3 0;
#X connect 5 0 12 0;
#X connect 5 0 16 0;
#X connect 6 0 8 0;
#X connect 7 0 6 0;
#X connect 8 0 13 0;
#X connect 8 0 17 0;
#X connect 9 0 32 0;
#X connect 10 0 31 0;
#X connect 11 0 30 0;
#X connect 12 0 21 0;
#X connect 13 0 22 0;
#X connect 15 0 33 0;
#X connect 18 0 10 0;
#X connect 19 0 9 0;
#X connect 20 0 26 0;
#X connect 23 0 24 0;
#X connect 25 0 20 0;
#X connect 27 0 4 0;
#X connect 28 0 7 0;
#X connect 29 0 11 0;
#X connect 33 0 0 1;
#X connect 34 0 3 0;
#X connect 35 0 6 0;
#X restore 18 346 pd scr8-presets;
#X obj 254 8 ux 8 1 0 0 4;
#N canvas 203 369 944 690 demo 0;
#X obj 67 173 i;
#X obj 97 173 + 1;
#X obj 67 98 t f b;
#X msg 99 123 0;
#X msg 32 327 41;
#X msg 69 329 48;
#X msg 105 330 53;
#X msg 147 331 60;
#X msg 184 331 65;
#X obj 245 277 s vel;
#X obj 64 232 t f b;
#X obj 91 395 +;
#X obj 12 568 s note;
#X obj 67 148 metro 250;
#X obj 150 148 s oneshot;
#X msg 150 122 1;
#X msg 245 252 1;
#X obj 351 21 cnv 20 258 108 empty empty Sequencer 20 12 0 12 #e0e0e0 #404040 0;
#X obj 358 54 tgl 20 0 empty empty On/Off 25 10 0 12 #fcfcfc #000000 #000000 0 1;
#X obj 361 78 hsl 170 20 -24 24 0 0 empty empty Pitch 10 10 0 12 #fcfcfc #000000 #000000 0 1;
#X obj 296 138 i;
#X floatatom 533 79 5 0 0 1 Ht - - 0;
#X obj 361 102 hsl 170 20 0 40 0 0 empty empty Speed 10 10 0 12 #fcfcfc #000000 #000000 0 1;
#X obj 331 200 i;
#X obj 156 20 r loadbang2;
#X msg 156 45 12;
#X obj 430 54 tgl 20 0 empty empty Rnd 25 10 0 12 #fcfcfc #000000 #000000 0 1;
#X obj 413 293 spigot;
#X obj 349 368 random 2;
#X obj 349 393 sel 1;
#X obj 156 577 spigot;
#X obj 340 577 spigot;
#X obj 379 553 == 3;
#X obj 195 553 expr $f1 == 2 || $f1 == 3;
#X obj 156 602 s note;
#X obj 340 602 s note;
#X obj 485 54 hsl 100 20 1 4 0 0 empty empty Interval 10 10 0 12 #fcfcfc #000000 #000000 0 1;
#X obj 122 502 + 4;
#X obj 182 501 + 7;
#X obj 160 382 random 4;
#X obj 160 407 sel 0;
#X msg 187 435 4;
#X obj 198 303 t b b b;
#X msg 154 435 3;
#X obj 229 408 sel 0;
#X obj 229 383 random 6;
#X msg 256 436 7;
#X msg 223 436 8;
#X obj 475 144 i;
#X msg 264 39 3;
#X msg 227 46 0;
#X obj 475 169 clip 1 3;
#X floatatom 587 55 2 0 0 0 - - - 0;
#X floatatom 533 103 5 0 0 1 ms - - 0;
#X obj 331 251 expr 5000 / $f1;
#X obj 413 318 random 40;
#X obj 413 342 - 16;
#X msg 191 46 1;
#X obj 575 171 r encbut;
#X obj 575 223 expr if ($f2 == 1 \, 0 \, 1);
#X obj 740 198 r son;
#X obj 575 248 s son;
#X obj 575 196 sel 1;
#X obj 298 16 r son;
#X obj 575 295 r enc;
#X obj 621 354 sel 0 1;
#X obj 540 482 s speed;
#X obj 263 84 r speed;
#X obj 541 427 expr $f2 - 0.1;
#X obj 575 321 auxHold;
#X obj 541 452 clip 0 20;
#X obj 636 402 r speed;
#X obj 700 490 s speed;
#X obj 701 460 clip 0 20;
#X obj 796 410 r speed;
#X obj 701 435 expr $f2 + 0.1;
#X obj 157 70 s speed;
#X obj 219 89 s son;
#X obj 64 584 pack f f f;
#X obj 64 609 print SEQ;
#X msg 219 332 60;
#X obj 331 225 clip 1 40;
#X obj 68 277 sel 0 2 6 16 18 24;
#X obj 64 207 mod 32;
#X connect 0 0 1 0;
#X connect 0 0 83 0;
#X connect 1 0 0 1;
#X connect 2 0 13 0;
#X connect 2 1 3 0;
#X connect 2 1 15 0;
#X connect 3 0 0 1;
#X connect 4 0 11 0;
#X connect 5 0 11 0;
#X connect 6 0 11 0;
#X connect 7 0 11 0;
#X connect 8 0 11 0;
#X connect 10 0 82 0;
#X connect 10 1 16 0;
#X connect 11 0 12 0;
#X connect 11 0 37 0;
#X connect 11 0 38 0;
#X connect 11 0 78 0;
#X connect 13 0 0 0;
#X connect 15 0 14 0;
#X connect 16 0 9 0;
#X connect 18 0 2 0;
#X connect 19 0 20 0;
#X connect 20 0 21 0;
#X connect 20 0 11 1;
#X connect 22 0 23 0;
#X connect 23 0 81 0;
#X connect 24 0 25 0;
#X connect 24 0 49 0;
#X connect 24 0 50 0;
#X connect 24 0 57 0;
#X connect 25 0 76 0;
#X connect 26 0 27 1;
#X connect 27 0 55 0;
#X connect 28 0 29 0;
#X connect 29 0 27 0;
#X connect 30 0 34 0;
#X connect 31 0 35 0;
#X connect 32 0 31 1;
#X connect 33 0 30 1;
#X connect 36 0 48 0;
#X connect 37 0 30 0;
#X connect 37 0 78 1;
#X connect 38 0 31 0;
#X connect 38 0 78 2;
#X connect 39 0 40 0;
#X connect 40 0 43 0;
#X connect 40 1 41 0;
#X connect 41 0 37 1;
#X connect 42 0 28 0;
#X connect 42 1 80 0;
#X connect 42 2 39 0;
#X connect 42 2 45 0;
#X connect 43 0 37 1;
#X connect 44 0 47 0;
#X connect 44 1 46 0;
#X connect 45 0 44 0;
#X connect 46 0 38 1;
#X connect 47 0 38 1;
#X connect 48 0 51 0;
#X connect 49 0 36 0;
#X connect 50 0 19 0;
#X connect 50 0 77 0;
#X connect 51 0 33 0;
#X connect 51 0 32 0;
#X connect 51 0 52 0;
#X connect 54 0 13 1;
#X connect 54 0 53 0;
#X connect 55 0 56 0;
#X connect 56 0 19 0;
#X connect 57 0 26 0;
#X connect 58 0 62 0;
#X connect 59 0 61 0;
#X connect 60 0 59 1;
#X connect 62 0 59 0;
#X connect 63 0 18 0;
#X connect 64 0 69 0;
#X connect 65 0 68 0;
#X connect 65 1 75 0;
#X connect 67 0 22 0;
#X connect 68 0 70 0;
#X connect 69 1 65 0;
#X connect 70 0 66 0;
#X connect 71 0 68 1;
#X connect 73 0 72 0;
#X connect 74 0 75 1;
#X connect 75 0 73 0;
#X connect 78 0 79 0;
#X connect 80 0 11 0;
#X connect 81 0 54 0;
#X connect 82 0 4 0;
#X connect 82 1 5 0;
#X connect 82 2 6 0;
#X connect 82 3 7 0;
#X connect 82 4 8 0;
#X connect 82 5 42 0;
#X connect 83 0 10 0;
#X coords 0 -1 1 1 260 110 2 350 20;
#X restore 228 213 pd demo;
#X obj 516 100 poly 6 1;
#X obj 516 175 clone the-jpvoice 6;
#N canvas 288 565 980 630 synth 1;
#X obj 681 194 loadbang;
#X obj 231 350 outlet~;
#X obj 345 350 outlet~;
#X obj 117 319 pd~ -ninsig 0 -noutsig 2 -fifo 20;
#X msg 681 219 pd~ start voices~.pd;
#X obj 136 27 r param;
#X msg 17 52 note \$1;
#X msg 78 52 vel \$1;
#X obj 136 52 unpack s f;
#X obj 136 77 pack s f;
#X msg 136 102 p param \$1 \$2;
#X obj 78 27 r vel;
#X obj 17 27 r note;
#X obj 241 52 unpack s f;
#X obj 241 77 pack s f;
#X msg 241 102 p fparam \$1 \$2;
#X obj 241 27 r fparam;
#X obj 352 52 unpack s f;
#X obj 352 77 pack s f;
#X obj 352 27 r aparam;
#X msg 352 102 p aparam \$1 \$2;
#X connect 0 0 4 0;
#X connect 3 1 1 0;
#X connect 3 2 2 0;
#X connect 4 0 3 0;
#X connect 5 0 8 0;
#X connect 6 0 3 0;
#X connect 7 0 3 0;
#X connect 8 0 9 0;
#X connect 8 1 9 1;
#X connect 9 0 10 0;
#X connect 10 0 3 0;
#X connect 11 0 7 0;
#X connect 12 0 6 0;
#X connect 13 0 14 0;
#X connect 13 1 14 1;
#X connect 14 0 15 0;
#X connect 15 0 3 0;
#X connect 16 0 13 0;
#X connect 17 0 18 0;
#X connect 17 1 18 1;
#X connect 18 0 20 0;
#X connect 19 0 17 0;
#X connect 20 0 3 0;
#X restore 413 510 pd synth;
#X connect 5 0 6 0;
#X connect 6 0 8 0;
#X connect 6 1 7 0;
#X connect 7 0 38 0;
#X connect 11 0 21 0;
#X connect 12 0 13 0;
#X connect 12 1 14 0;
#X connect 15 0 12 2;
#X connect 15 1 12 3;
#X connect 16 0 15 2;
#X connect 17 0 16 0;
#X connect 17 0 26 0;
#X connect 18 0 12 4;
#X connect 19 0 52 0;
#X connect 20 0 52 1;
#X connect 21 0 53 0;
#X connect 25 0 28 0;
#X connect 26 0 15 4;
#X connect 27 0 29 0;
#X connect 28 0 15 3;
#X connect 29 0 15 5;
#X connect 30 0 15 0;
#X connect 30 0 12 0;
#X connect 31 0 15 1;
#X connect 31 0 12 1;
#X connect 38 0 36 0;
#X connect 39 0 40 0;
#X connect 40 0 41 0;
#X connect 41 0 43 0;
#X connect 43 0 42 0;
#X connect 44 0 45 0;
#X connect 45 0 47 0;
#X connect 47 0 46 0;
#X connect 52 0 11 0;
#X connect 52 1 21 1;
#X connect 52 2 21 2;
#X connect 53 0 30 0;
#X connect 53 1 31 0;
