#N canvas 784 250 542 377 12;
#X text 184 17 0 => Left 1 => Right;
#X obj 26 315 outlet~ outL;
#X obj 123 314 outlet~ outR;
#X obj 123 252 *~;
#X obj 27 253 *~;
#X obj 359 41 loadbang;
#X msg 359 67 0.5;
#X obj 183 41 inlet panValue;
#X obj 183 70 clip 0 1;
#X obj 183 116 expr pow(1 - $f1 \, 0.85);
#X obj 359 116 expr pow($f1 \, 0.85);
#X msg 359 141 \$1 10;
#X msg 183 141 \$1 10;
#X obj 359 166 vline~;
#X obj 183 166 vline~;
#X obj 26 41 inlet~ inL;
#X obj 104 41 inlet~ inR;
#X connect 3 0 2 0;
#X connect 4 0 1 0;
#X connect 5 0 6 0;
#X connect 6 0 10 0;
#X connect 6 0 9 0;
#X connect 7 0 8 0;
#X connect 8 0 9 0;
#X connect 8 0 10 0;
#X connect 9 0 12 0;
#X connect 10 0 11 0;
#X connect 11 0 13 0;
#X connect 12 0 14 0;
#X connect 13 0 3 1;
#X connect 14 0 4 1;
#X connect 15 0 4 0;
#X connect 16 0 3 0;
