#N canvas 1078 292 559 451 12;
#X obj 62 385 outlet~;
#X obj 122 385 outlet~;
#X obj 63 17 r param;
#X obj 63 322 jpvoice~;
#X obj 63 349 *~;
#X obj 116 349 *~;
#X obj 120 137 mtof;
#X msg 120 162 f \$1;
#X obj 120 17 inlet;
#X obj 120 43 unpack f f;
#X obj 116 234 sig~;
#X obj 116 209 r reso;
#X obj 167 234 adsr~;
#X obj 252 234 adsr~;
#X obj 167 209 r fparam;
#X obj 322 118 sel 0;
#X msg 361 214 start;
#X msg 322 214 stop;
#X obj 252 209 r aparam;
#X obj 354 143 t b f;
#X msg 235 183 g \$1;
#X obj 152 67 r bend;
#X obj 152 92 t b f;
#X obj 120 112 +;
#X connect 2 0 3 0;
#X connect 3 0 4 0;
#X connect 3 1 5 0;
#X connect 4 0 0 0;
#X connect 5 0 1 0;
#X connect 6 0 7 0;
#X connect 7 0 3 0;
#X connect 8 0 9 0;
#X connect 9 0 23 0;
#X connect 9 1 15 0;
#X connect 10 0 3 2;
#X connect 11 0 10 0;
#X connect 12 0 3 1;
#X connect 13 0 5 1;
#X connect 13 0 4 1;
#X connect 14 0 12 0;
#X connect 15 0 17 0;
#X connect 15 1 19 0;
#X connect 16 0 12 0;
#X connect 16 0 13 0;
#X connect 17 0 12 0;
#X connect 17 0 13 0;
#X connect 18 0 13 0;
#X connect 19 0 16 0;
#X connect 19 1 20 0;
#X connect 20 0 13 0;
#X connect 21 0 22 0;
#X connect 22 0 23 0;
#X connect 22 1 23 1;
#X connect 23 0 6 0;
