#N canvas 475 332 725 598 12;
#X obj 61 531 outlet~;
#X obj 121 531 outlet~;
#X obj 63 121 r param;
#X obj 62 468 jpvoice~;
#X obj 62 495 *~;
#X obj 115 495 *~;
#X obj 354 285 vline~;
#X obj 407 185 r att;
#X obj 354 205 f;
#X obj 538 205 r rel;
#X obj 354 310 pow~ 2;
#X msg 354 255 \$1 \$2;
#X obj 485 230 pack f f;
#X obj 485 205 f;
#X msg 485 255 0 \$2 \$1;
#X obj 354 230 pack f f;
#X obj 295 123 sel 0;
#X obj 295 96 t f f;
#X obj 144 95 mtof;
#X msg 144 120 f \$1;
#X obj 156 299 line;
#X obj 156 324 pow 2;
#X msg 156 380 cutoff \$1;
#X obj 174 211 r att;
#X obj 156 236 f;
#X obj 141 211 b;
#X msg 156 261 1 \$1 0.1;
#X obj 239 235 f;
#X obj 224 211 b;
#X obj 257 211 r rel;
#X msg 239 260 0 \$1 0.1;
#X obj 202 324 r cutoff;
#X obj 144 26 inlet;
#X obj 144 51 unpack f f;
#X obj 156 349 * 15000;
#X connect 2 0 3 0;
#X connect 3 0 4 0;
#X connect 3 1 5 0;
#X connect 4 0 0 0;
#X connect 5 0 1 0;
#X connect 6 0 10 0;
#X connect 7 0 13 1;
#X connect 7 0 15 1;
#X connect 8 0 15 0;
#X connect 9 0 12 1;
#X connect 10 0 5 1;
#X connect 10 0 4 1;
#X connect 11 0 6 0;
#X connect 12 0 14 0;
#X connect 13 0 12 0;
#X connect 14 0 6 0;
#X connect 15 0 11 0;
#X connect 16 0 13 0;
#X connect 16 0 28 0;
#X connect 16 1 8 0;
#X connect 16 1 25 0;
#X connect 17 0 16 0;
#X connect 17 1 8 1;
#X connect 18 0 19 0;
#X connect 19 0 3 0;
#X connect 20 0 21 0;
#X connect 21 0 34 0;
#X connect 22 0 3 0;
#X connect 23 0 24 1;
#X connect 24 0 26 0;
#X connect 25 0 24 0;
#X connect 26 0 20 0;
#X connect 27 0 30 0;
#X connect 28 0 27 0;
#X connect 29 0 27 1;
#X connect 30 0 20 0;
#X connect 31 0 34 1;
#X connect 32 0 33 0;
#X connect 33 0 18 0;
#X connect 33 1 17 0;
#X connect 34 0 22 0;
