#N canvas 949 123 819 591 12;
#X obj 61 531 outlet~;
#X obj 121 531 outlet~;
#X obj 63 17 r param;
#X obj 62 468 jpvoice~;
#X obj 62 495 *~;
#X obj 115 495 *~;
#X obj 425 260 vline~;
#X obj 478 160 r att;
#X obj 425 180 f;
#X obj 609 180 r rel;
#X obj 425 285 pow~ 2;
#X msg 425 230 \$1 \$2;
#X obj 556 205 pack f f;
#X obj 556 180 f;
#X msg 556 230 0 \$2 \$1;
#X obj 425 205 pack f f;
#X obj 425 143 sel 0;
#X obj 425 116 t f f;
#X obj 165 72 mtof;
#X msg 165 97 f \$1;
#X obj 165 17 inlet;
#X obj 165 43 unpack f f;
#X obj 119 413 sig~;
#X obj 119 388 r reso;
#X obj 184 363 *~;
#X obj 257 232 r cutoff;
#X obj 257 257 t b f;
#X msg 257 303 1;
#X connect 2 0 3 0;
#X connect 3 0 4 0;
#X connect 3 1 5 0;
#X connect 4 0 0 0;
#X connect 5 0 1 0;
#X connect 6 0 10 0;
#X connect 7 0 13 1;
#X connect 7 0 15 1;
#X connect 8 0 15 0;
#X connect 9 0 12 1;
#X connect 10 0 5 1;
#X connect 10 0 4 1;
#X connect 11 0 6 0;
#X connect 12 0 14 0;
#X connect 13 0 12 0;
#X connect 14 0 6 0;
#X connect 15 0 11 0;
#X connect 16 0 13 0;
#X connect 16 1 8 0;
#X connect 17 0 16 0;
#X connect 17 1 8 1;
#X connect 18 0 19 0;
#X connect 19 0 3 0;
#X connect 20 0 21 0;
#X connect 21 0 18 0;
#X connect 21 1 17 0;
#X connect 22 0 3 2;
#X connect 23 0 22 0;
#X connect 24 0 3 1;
#X connect 25 0 26 0;
#X connect 26 0 27 0;
#X connect 26 1 24 1;
#X connect 27 0 24 0;
