#N canvas 970 96 603 328 12;
#X obj 20 30 r p;
#X obj 187 222 r note;
#X floatatom 187 247 5 0 0 0 - - - 0;
#X floatatom 244 248 5 0 0 0 - - - 0;
#X obj 244 223 r vel;
#X obj 296 29 r param;
#X obj 20 82 s param;
#X obj 20 55 route param fparam aparam;
#X obj 77 82 s fparam;
#X obj 140 82 s aparam;
#X obj 296 54 print PARAM;
#X obj 382 29 r fparam;
#X obj 382 54 print FPARAM;
#X obj 475 29 r aparam;
#X obj 475 54 print APARAM;
#X connect 0 0 7 0;
#X connect 1 0 2 0;
#X connect 4 0 3 0;
#X connect 5 0 10 0;
#X connect 7 0 6 0;
#X connect 7 1 8 0;
#X connect 7 2 9 0;
#X connect 11 0 12 0;
#X connect 13 0 14 0;
