#N canvas 953 726 374 188 12;
#X obj 11 10 inlet;
#X obj 11 135 outlet;
#X obj 11 108 line;
#X obj 130 36 f \$1;
#X obj 130 10 loadbang;
#X obj 53 10 inlet time;
#X obj 11 81 pack f 50 1;
#X obj 130 61 expr if ($f1 <= 0 \, 50 \, $f1);
#X connect 0 0 6 0;
#X connect 2 0 1 0;
#X connect 3 0 7 0;
#X connect 4 0 3 0;
#X connect 5 0 6 1;
#X connect 6 0 2 0;
#X connect 7 0 6 2;
