#N canvas 1232 209 1307 1022 12;
#X obj 148 22 inlet~ inR;
#X obj 41 21 inlet~ inL;
#X obj 495 272 tgl 19 0 empty empty MUTE -31 10 0 12 #fcfcfc #000000 #000000 0 1;
#X obj 202 205 bng 15 250 50 0 empty empty empty 17 7 0 10 #fcfcfc #000000 #000000;
#X obj 234 205 bng 15 250 50 0 empty empty empty 17 7 0 10 #fcfcfc #000000 #000000;
#X obj 202 178 sel 1;
#X obj 42 438 *~;
#X obj 181 389 *~;
#X msg 189 225 0;
#X obj 409 143 hsl 252 15 0 10 0 0 empty empty Volume -2 -8 0 10 #fcfcfc #000000 #000000 0 1;
#X floatatom 233 226 5 0 0 0 - - - 0;
#X obj 406 46 loadbang;
#X msg 406 75 1;
#X obj 409 208 hsl 252 15 0 1 0 0 empty empty Panning -2 -8 0 10 #fcfcfc #000000 #000000 0 1;
#X msg 442 75 0.5;
#X obj 665 208 bng 15 250 50 0 empty empty empty 17 7 0 10 #fcfcfc #000000 #000000;
#X obj 189 282 vline~;
#X text 517 159 100 %;
#X obj 406 176 hradio 15 1 0 10 empty empty empty 0 -10 0 12 #fcfcfc #000000 #000000 0;
#X text 403 159 10 %;
#X msg 479 75 4;
#X obj 478 389 expr $f1 * 0.1 + 0.1;
#X obj 687 136 vu 15 120 empty L 5 -8 0 10 #404040 #000000 0 0;
#X obj 704 136 vu 15 120 empty R 5 -8 0 10 #404040 #000000 1 0;
#X obj 589 41 env~;
#X obj 639 41 env~;
#X obj 639 67 - 100;
#X obj 589 67 - 100;
#X msg 309 109 0;
#X obj 309 85 bng 19 250 50 0 empty empty empty 0 -10 0 12 #fcfcfc #000000 #000000;
#X obj 309 133 change;
#X msg 342 109 set 1;
#X obj 342 81 bng 19 250 50 0 empty empty empty 0 -10 0 12 #fcfcfc #000000 #000000;
#X obj 342 55 sel 1;
#X obj 597 297 vradio 19 1 0 2 empty empty empty -58 -10 0 12 #fcfcfc #000000 #000000 0;
#X text 572 295 DAC;
#X obj 627 389 s \$0-audioto;
#X text 530 316 ORGANELLE;
#X obj 43 719 throw~ outL;
#X obj 256 720 throw~ outR;
#X obj 285 591 s~ \$0-outR;
#X obj 70 591 s~ \$0-outL;
#X obj 162 718 dac~;
#X obj 42 646 *~;
#X obj 70 646 *~;
#X obj 256 646 *~;
#X obj 284 646 *~;
#X obj 438 565 r \$0-audioto;
#X obj 438 591 sel 0 1;
#X msg 438 627 0;
#X msg 475 627 1;
#X msg 518 627 0;
#X msg 555 627 1;
#X msg 514 75 0;
#X text 405 102 M A S T E R O U T P U T;
#X obj 409 243 hsl 252 15 0 10 0 0 empty empty Input\ Gain -2 -10 0 10 #fcfcfc #000000 #000000 0 1;
#X msg 360 245 1;
#X obj 148 114 *~;
#X obj 42 113 *~;
#X obj 85 79 vline~;
#X msg 85 54 \$1 30;
#X obj 597 272 tgl 19 0 empty empty DAC\ ON/OFF -72 10 0 12 #fcfcfc #000000 #000000 0 1;
#X msg 718 389 \; pd dsp \$1 \;;
#X obj 665 143 bng 15 250 50 0 empty empty empty 0 -10 0 12 #fcfcfc #000000 #000000;
#X msg 550 76 1;
#X obj 297 238 t b f;
#X obj 189 257 pack \$1 100;
#X msg 694 559 color #ff0000;
#X msg 646 650 color #ffffff;
#X obj 646 483 sel 0 1;
#X obj 433 498 expr if ($f1 > 1 \, 1 \, 0);
#X obj 433 524 expr if ($f1 > 1 \, 1 \, 0);
#X obj 359 479 snapshot~;
#X obj 359 450 metro 20;
#X obj 359 403 loadbang;
#X obj 359 427 bng 19 250 50 0 empty empty empty 0 -10 0 12 #fcfcfc #000000 #000000;
#X obj 359 505 snapshot~;
#X obj 618 456 spigot 1;
#X msg 717 535 0;
#X obj 495 316 tgl 19 0 empty empty OUTPUT\ CLIP -80 10 0 12 #ffffff #000000 #000000 0 1;
#X obj 671 586 delay 100;
#X msg 671 610 1;
#X obj 671 510 t b b b;
#X obj 42 186 expr~ tanh($v1);
#X obj 149 140 expr~ tanh($v1);
#X msg 1186 560 color #ff0000;
#X msg 1138 651 color #ffffff;
#X obj 1138 484 sel 0 1;
#X obj 1110 457 spigot 1;
#X msg 1209 536 0;
#X obj 1163 587 delay 100;
#X msg 1163 611 1;
#X obj 1163 511 t b b b;
#X obj 924 556 expr if ($f1 > 1 \, 1 \, 0);
#X obj 924 582 expr if ($f1 > 1 \, 1 \, 0);
#X obj 850 537 snapshot~;
#X obj 850 508 metro 20;
#X obj 850 461 loadbang;
#X obj 850 485 bng 19 250 50 0 empty empty empty 0 -10 0 12 #fcfcfc #000000 #000000;
#X obj 850 563 snapshot~;
#X obj 495 294 tgl 19 0 empty empty INPUT\ CLIP -73 10 0 12 #ffffff #000000 #000000 0 1;
#X obj 42 563 expr~ tanh($v1);
#X obj 256 564 expr~ tanh($v1);
#X obj 834 915 recorder~;
#X obj 957 873 i;
#X obj 986 873 + 1;
#X obj 874 799 sel 0 1, f 15;
#X obj 925 823 t 1 b;
#X msg 874 823 0;
#X msg 925 847 1;
#X obj 957 896 makefilename recording_%s.wav;
#X obj 723 268 cnv 19 87 67 empty empty empty 20 12 0 12 #ff8300 #ffffff 0;
#X obj 725 270 tgl 19 0 empty empty Record 25 10 0 12 #ffffff #000000 #ffffff 0 1;
#X obj 98 971 vstplugin~;
#X obj 20 971 vstplugin~;
#X obj 725 292 tgl 19 0 empty empty Scope 25 10 0 12 #fcfcfc #000000 #ffffff 0 1;
#X msg 246 899 vis 1;
#X obj 223 871 sel 0 1;
#X msg 223 925 vis 0;
#X obj 725 314 tgl 19 0 empty empty Spectrum 25 10 0 12 #fcfcfc #000000 #ffffff 0 1;
#X msg 312 899 vis 1;
#X obj 289 871 sel 0 1;
#X msg 289 925 vis 0;
#X obj 213 755 loadbang;
#X obj 213 779 t b b;
#X msg 245 806 open -e -t /home/thomas/.vst3/yabridge/SPAN.vst3;
#X msg 140 836 open -e -t /home/thomas/.vst/yabridge/JScope_x64.so;
#X text 691 104 INP;
#X obj 751 136 vu 15 120 empty L 5 -8 0 10 #404040 #000000 0 0;
#X obj 768 136 vu 15 120 empty R 5 -8 0 10 #404040 #000000 1 0;
#X text 755 104 OUT;
#X obj 695 41 env~;
#X obj 745 41 env~;
#X obj 745 67 - 100;
#X obj 695 67 - 100;
#X obj 42 480 pan2~, f 31;
#X connect 0 0 57 0;
#X connect 1 0 58 0;
#X connect 2 0 5 0;
#X connect 2 0 33 0;
#X connect 3 0 8 0;
#X connect 4 0 10 0;
#X connect 5 0 3 0;
#X connect 5 1 4 0;
#X connect 6 0 135 0;
#X connect 7 0 135 1;
#X connect 8 0 66 0;
#X connect 9 0 29 0;
#X connect 9 0 10 0;
#X connect 10 0 66 0;
#X connect 11 0 12 0;
#X connect 11 0 14 0;
#X connect 11 0 20 0;
#X connect 11 0 53 0;
#X connect 11 0 56 0;
#X connect 12 0 9 0;
#X connect 13 0 135 2;
#X connect 14 0 13 0;
#X connect 15 0 14 0;
#X connect 16 0 7 1;
#X connect 16 0 6 1;
#X connect 18 0 21 0;
#X connect 20 0 18 0;
#X connect 21 0 9 0;
#X connect 21 0 29 0;
#X connect 24 0 27 0;
#X connect 25 0 26 0;
#X connect 26 0 23 0;
#X connect 27 0 22 0;
#X connect 28 0 30 0;
#X connect 29 0 28 0;
#X connect 30 0 2 0;
#X connect 31 0 30 0;
#X connect 32 0 31 0;
#X connect 33 0 32 0;
#X connect 34 0 36 0;
#X connect 43 0 38 0;
#X connect 44 0 42 0;
#X connect 45 0 39 0;
#X connect 46 0 42 1;
#X connect 47 0 48 0;
#X connect 48 0 49 0;
#X connect 48 0 50 0;
#X connect 48 1 51 0;
#X connect 48 1 52 0;
#X connect 49 0 43 1;
#X connect 49 0 45 1;
#X connect 50 0 44 1;
#X connect 50 0 46 1;
#X connect 51 0 46 1;
#X connect 51 0 44 1;
#X connect 52 0 45 1;
#X connect 52 0 43 1;
#X connect 53 0 34 0;
#X connect 55 0 60 0;
#X connect 56 0 55 0;
#X connect 57 0 84 0;
#X connect 57 0 95 0;
#X connect 57 0 103 1;
#X connect 57 0 114 1;
#X connect 57 0 113 1;
#X connect 58 0 83 0;
#X connect 58 0 99 0;
#X connect 58 0 103 0;
#X connect 58 0 114 0;
#X connect 58 0 113 0;
#X connect 59 0 58 1;
#X connect 59 0 57 1;
#X connect 60 0 59 0;
#X connect 61 0 62 0;
#X connect 63 0 64 0;
#X connect 64 0 9 0;
#X connect 64 0 55 0;
#X connect 66 0 16 0;
#X connect 67 0 79 0;
#X connect 68 0 79 0;
#X connect 69 0 68 0;
#X connect 69 1 82 0;
#X connect 70 0 77 0;
#X connect 71 0 77 0;
#X connect 72 0 70 0;
#X connect 73 0 72 0;
#X connect 73 0 76 0;
#X connect 74 0 75 0;
#X connect 75 0 73 0;
#X connect 76 0 71 0;
#X connect 77 0 69 0;
#X connect 78 0 77 1;
#X connect 80 0 81 0;
#X connect 81 0 77 1;
#X connect 82 0 80 0;
#X connect 82 1 67 0;
#X connect 82 2 78 0;
#X connect 83 0 6 0;
#X connect 83 0 24 0;
#X connect 84 0 7 0;
#X connect 84 0 25 0;
#X connect 85 0 100 0;
#X connect 86 0 100 0;
#X connect 87 0 86 0;
#X connect 87 1 92 0;
#X connect 88 0 87 0;
#X connect 89 0 88 1;
#X connect 90 0 91 0;
#X connect 91 0 88 1;
#X connect 92 0 90 0;
#X connect 92 1 85 0;
#X connect 92 2 89 0;
#X connect 93 0 88 0;
#X connect 94 0 88 0;
#X connect 95 0 93 0;
#X connect 96 0 95 0;
#X connect 96 0 99 0;
#X connect 97 0 98 0;
#X connect 98 0 96 0;
#X connect 99 0 94 0;
#X connect 101 0 41 0;
#X connect 101 0 43 0;
#X connect 101 0 44 0;
#X connect 101 0 131 0;
#X connect 102 0 40 0;
#X connect 102 0 45 0;
#X connect 102 0 46 0;
#X connect 102 0 132 0;
#X connect 104 0 105 0;
#X connect 104 0 110 0;
#X connect 105 0 104 1;
#X connect 106 0 108 0;
#X connect 106 1 107 0;
#X connect 107 0 109 0;
#X connect 107 1 104 0;
#X connect 108 0 103 2;
#X connect 109 0 103 2;
#X connect 110 0 103 3;
#X connect 112 0 106 0;
#X connect 115 0 117 0;
#X connect 116 0 114 0;
#X connect 117 0 118 0;
#X connect 117 1 116 0;
#X connect 118 0 114 0;
#X connect 119 0 121 0;
#X connect 120 0 113 0;
#X connect 121 0 122 0;
#X connect 121 1 120 0;
#X connect 122 0 113 0;
#X connect 123 0 124 0;
#X connect 124 0 126 0;
#X connect 124 1 125 0;
#X connect 125 0 113 0;
#X connect 126 0 114 0;
#X connect 131 0 134 0;
#X connect 132 0 133 0;
#X connect 133 0 129 0;
#X connect 134 0 128 0;
#X connect 135 0 101 0;
#X connect 135 0 76 0;
#X connect 135 1 102 0;
#X connect 135 1 72 0;
#X coords 0 -1 1 1 417 241 2 400 100;
