#N canvas 754 302 439 674 12;
#X obj 43 18 inlet;
#X obj 43 57 moses 1;
#X obj 160 640 outlet;
#X obj 160 77 b;
#X obj 160 127 b;
#X obj 43 107 moses 0.9;
#X obj 160 177 b;
#X obj 43 157 moses 0.8;
#X obj 160 227 b;
#X obj 43 207 moses 0.7;
#X obj 160 277 b;
#X obj 43 257 moses 0.6;
#X obj 160 327 b;
#X obj 43 307 moses 0.5;
#X obj 160 377 b;
#X obj 43 357 moses 0.4;
#X obj 160 427 b;
#X obj 43 407 moses 0.3;
#X obj 160 477 b;
#X obj 43 457 moses 0.2;
#X obj 160 527 b;
#X obj 43 507 moses 0.1;
#X obj 160 577 b;
#X obj 43 557 moses 0;
#X msg 160 602 symbol |----------;
#X msg 160 552 symbol -|---------;
#X msg 160 502 symbol --|--------;
#X msg 160 452 symbol ---|-------;
#X msg 160 402 symbol ----|------;
#X msg 160 352 symbol -----|-----;
#X msg 160 102 symbol ----------|;
#X msg 160 152 symbol ---------|-;
#X msg 160 202 symbol --------|--;
#X msg 160 252 symbol -------|---;
#X msg 160 302 symbol ------|----;
#X connect 0 0 1 0;
#X connect 1 0 5 0;
#X connect 1 1 3 0;
#X connect 3 0 30 0;
#X connect 4 0 31 0;
#X connect 5 0 7 0;
#X connect 5 1 4 0;
#X connect 6 0 32 0;
#X connect 7 0 9 0;
#X connect 7 1 6 0;
#X connect 8 0 33 0;
#X connect 9 0 11 0;
#X connect 9 1 8 0;
#X connect 10 0 34 0;
#X connect 11 0 13 0;
#X connect 11 1 10 0;
#X connect 12 0 29 0;
#X connect 13 0 15 0;
#X connect 13 1 12 0;
#X connect 14 0 28 0;
#X connect 15 0 17 0;
#X connect 15 1 14 0;
#X connect 16 0 27 0;
#X connect 17 0 19 0;
#X connect 17 1 16 0;
#X connect 18 0 26 0;
#X connect 19 0 21 0;
#X connect 19 1 18 0;
#X connect 20 0 25 0;
#X connect 21 0 23 0;
#X connect 21 1 20 0;
#X connect 22 0 24 0;
#X connect 23 1 22 0;
#X connect 24 0 2 0;
#X connect 25 0 2 0;
#X connect 26 0 2 0;
#X connect 27 0 2 0;
#X connect 28 0 2 0;
#X connect 29 0 2 0;
#X connect 30 0 2 0;
#X connect 31 0 2 0;
#X connect 32 0 2 0;
#X connect 33 0 2 0;
#X connect 34 0 2 0;
