#N canvas 77 82 762 340 12;
#X obj 378 77 clip 0 1;
#X obj 378 12 inlet fade;
#X obj 13 12 inlet~ in1_1;
#X obj 104 12 inlet~ in1_2;
#X obj 196 12 inlet~ in2_1;
#X obj 287 12 inlet~ in2_2;
#X obj 208 284 outlet~;
#X obj 76 284 outlet~;
#X obj 378 101 expr (pow(2 * $f1 - 1 \, 1) + 1) / 4 * 3.14159;
#X obj 104 217 *~;
#X obj 18 149 cos;
#X msg 18 173 \$1 10;
#X obj 18 197 vline~;
#X obj 75 217 *~;
#X obj 225 217 *~;
#X obj 262 149 sin;
#X msg 262 173 \$1 10;
#X obj 262 197 vline~;
#X obj 196 217 *~;
#X obj 75 259 +~;
#X obj 208 259 +~;
#X msg 390 47 0;
#X obj 470 27 loadbang;
#X connect 0 0 8 0;
#X connect 1 0 0 0;
#X connect 2 0 13 0;
#X connect 3 0 9 0;
#X connect 4 0 18 0;
#X connect 5 0 14 0;
#X connect 8 0 15 0;
#X connect 8 0 10 0;
#X connect 9 0 20 0;
#X connect 10 0 11 0;
#X connect 11 0 12 0;
#X connect 12 0 9 1;
#X connect 12 0 13 1;
#X connect 13 0 19 0;
#X connect 14 0 20 1;
#X connect 15 0 16 0;
#X connect 16 0 17 0;
#X connect 17 0 14 1;
#X connect 17 0 18 1;
#X connect 18 0 19 1;
#X connect 19 0 7 0;
#X connect 20 0 6 0;
#X connect 21 0 0 0;
#X connect 22 0 21 0;
