#N canvas 367 208 375 196 12;
#X obj 31 149 outlet;
#X obj 31 11 inlet;
#X obj 202 11 loadbang;
#X obj 117 11 inlet reset;
#X obj 202 36 f \$1;
#X obj 76 92 i;
#X obj 31 121 i;
#X obj 31 36 b;
#X obj 117 36 b;
#X obj 99 131 - 1;
#X obj 74 11 inlet;
#X obj 74 36 i;
#X connect 1 0 7 0;
#X connect 2 0 4 0;
#X connect 3 0 8 0;
#X connect 4 0 5 0;
#X connect 5 0 6 1;
#X connect 6 0 0 0;
#X connect 6 0 9 0;
#X connect 7 0 6 0;
#X connect 8 0 5 0;
#X connect 9 0 6 1;
#X connect 10 0 11 0;
#X connect 11 0 6 1;
