#N canvas 477 276 634 575 12;
#X obj 313 6 loadbang;
#X obj 261 97 f \$1;
#X text 268 116 min;
#X obj 300 97 f \$2;
#X text 307 116 max;
#X obj 8 6 inlet min;
#X obj 79 6 inlet max;
#X obj 92 174 r enc;
#X obj 92 285 sel 0 1;
#X obj 92 370 spigot;
#X obj 299 317 spigot;
#X obj 338 290 <;
#X obj 92 448 dec 1;
#X obj 299 396 inc 1;
#X obj 108 423 - 1;
#X obj 315 371 + 1;
#X obj 157 512 outlet;
#X obj 206 512 s \$0curr;
#X obj 131 315 r \$0curr;
#X obj 338 264 r \$0curr;
#X obj 315 347 r \$0curr;
#X obj 108 399 r \$0curr;
#X obj 131 343 >;
#X text 339 116 init;
#X obj 339 97 f \$3;
#X obj 150 6 inlet curr;
#X obj 339 143 s \$0curr;
#X text 386 116 aux;
#X obj 379 97 f \$4;
#X obj 92 253 spigot;
#X obj 403 143 s \$0auxst;
#X obj 233 202 r \$0auxst;
#X obj 131 202 r auxState;
#X obj 131 227 expr $f1 == $f2;
#X obj 154 150 loadbang;
#X msg 154 174 0;
#X obj 313 34 t b b b b;
#X obj 228 6 inlet auxst;
#X connect 0 0 36 0;
#X connect 1 0 22 1;
#X connect 3 0 11 1;
#X connect 5 0 1 0;
#X connect 6 0 3 0;
#X connect 7 0 29 0;
#X connect 8 0 9 0;
#X connect 8 1 10 0;
#X connect 9 0 12 0;
#X connect 10 0 13 0;
#X connect 11 0 10 1;
#X connect 12 0 16 0;
#X connect 12 0 17 0;
#X connect 13 0 16 0;
#X connect 13 0 17 0;
#X connect 14 0 12 1;
#X connect 15 0 13 1;
#X connect 18 0 22 0;
#X connect 19 0 11 0;
#X connect 20 0 15 0;
#X connect 21 0 14 0;
#X connect 22 0 9 1;
#X connect 24 0 26 0;
#X connect 25 0 24 0;
#X connect 28 0 30 0;
#X connect 29 0 8 0;
#X connect 31 0 33 1;
#X connect 32 0 33 0;
#X connect 33 0 29 1;
#X connect 34 0 35 0;
#X connect 35 0 33 0;
#X connect 36 0 28 0;
#X connect 36 1 24 0;
#X connect 36 2 3 0;
#X connect 36 3 1 0;
#X connect 37 0 28 0;
