#N canvas 87 162 496 167 12;
#X obj 11 10 r notes;
#X obj 11 60 unpack;
#X obj 49 105 s midiNote;
#X obj 366 80 s midiVelocity;
#X obj 267 80 moses 1;
#X obj 127 105 spigot;
#X obj 166 80 > 0;
#X obj 11 129 s midiFreq;
#X obj 11 105 mtof;
#X obj 11 35 spigot 1;
#X obj 78 15 r enableInputs;
#X obj 191 105 spigot;
#X obj 230 80 == 0;
#X obj 267 105 b;
#X obj 366 105 b;
#X obj 127 129 s noteOn;
#X obj 191 129 s noteOff;
#X obj 267 129 s trigNoteOff;
#X obj 366 129 s trigNoteOn;
#X connect 0 0 9 0;
#X connect 1 0 2 0;
#X connect 1 0 5 0;
#X connect 1 0 8 0;
#X connect 1 0 11 0;
#X connect 1 1 3 0;
#X connect 1 1 4 0;
#X connect 1 1 6 0;
#X connect 1 1 12 0;
#X connect 4 0 13 0;
#X connect 4 1 14 0;
#X connect 5 0 15 0;
#X connect 6 0 5 1;
#X connect 8 0 7 0;
#X connect 9 0 1 0;
#X connect 10 0 9 1;
#X connect 11 0 16 0;
#X connect 12 0 11 1;
#X connect 13 0 17 0;
#X connect 14 0 18 0;
