#N canvas 1059 583 450 221 12;
#X obj 21 13 inlet value;
#X obj 68 172 s;
#X msg 86 105 symbol \$1;
#X obj 117 13 loadbang;
#X obj 21 105 pack f s;
#X obj 42 52 symbol \$1;
#X obj 117 52 symbol \$2;
#X msg 21 130 \$2 \$1;
#X text 194 107 sends a value to a receiver;
#X text 194 121 param 1: receiver name;
#X text 194 136 param 2: value name;
#X connect 0 0 4 0;
#X connect 2 0 1 1;
#X connect 3 0 5 0;
#X connect 3 0 6 0;
#X connect 4 0 7 0;
#X connect 5 0 2 0;
#X connect 6 0 4 1;
#X connect 7 0 1 0;
